<mxfile host="Electron" modified="2024-05-23T14:37:16.371Z" agent="Mozilla/5.0 (Windows NT 10.0; Win64; x64) AppleWebKit/537.36 (KHTML, like Gecko) draw.io/23.1.5 Chrome/120.0.6099.109 Electron/28.1.0 Safari/537.36" etag="LV1eNMSgLqf3Av1TxCuE" version="23.1.5" type="device">
  <diagram name="Strona-1" id="tKh5jBK7ZMCCm5xY7gQM">
    <mxGraphModel dx="1434" dy="957" grid="1" gridSize="10" guides="1" tooltips="1" connect="1" arrows="1" fold="1" page="1" pageScale="1" pageWidth="1000" pageHeight="700" math="0" shadow="0">
      <root>
        <mxCell id="0" />
        <mxCell id="1" parent="0" />
        <mxCell id="QW86rbhPurHiQnkh5BR2-63" value="" style="rounded=0;whiteSpace=wrap;html=1;" parent="1" vertex="1">
          <mxGeometry x="277.09" y="60" width="342.91" height="550" as="geometry" />
        </mxCell>
        <mxCell id="QW86rbhPurHiQnkh5BR2-61" value="" style="rounded=0;whiteSpace=wrap;html=1;" parent="1" vertex="1">
          <mxGeometry x="640" y="60" width="340" height="550" as="geometry" />
        </mxCell>
        <mxCell id="QW86rbhPurHiQnkh5BR2-59" value="" style="rounded=0;whiteSpace=wrap;html=1;" parent="1" vertex="1">
          <mxGeometry x="10" y="60" width="240" height="550" as="geometry" />
        </mxCell>
        <mxCell id="QZXlK6RzlSNB_sEMwjah-393" value="bsum2&lt;div&gt;&lt;br/&gt;&lt;/div&gt;" style="rounded=0;whiteSpace=wrap;html=1;" parent="1" vertex="1">
          <mxGeometry x="767.09" y="467.84000000000003" width="40" height="60" as="geometry" />
        </mxCell>
        <mxCell id="QZXlK6RzlSNB_sEMwjah-394" value="bsum1" style="rounded=0;whiteSpace=wrap;html=1;" parent="1" vertex="1">
          <mxGeometry x="767.09" y="272.84000000000003" width="40" height="165" as="geometry" />
        </mxCell>
        <mxCell id="QZXlK6RzlSNB_sEMwjah-391" value="sum6" style="rounded=0;whiteSpace=wrap;html=1;" parent="1" vertex="1">
          <mxGeometry x="707.09" y="477.84000000000003" width="40" height="60" as="geometry" />
        </mxCell>
        <mxCell id="QZXlK6RzlSNB_sEMwjah-387" value="&lt;br&gt;&lt;br&gt;sum2" style="rounded=0;whiteSpace=wrap;html=1;" parent="1" vertex="1">
          <mxGeometry x="707.09" y="387.84000000000003" width="40" height="60" as="geometry" />
        </mxCell>
        <mxCell id="QZXlK6RzlSNB_sEMwjah-375" value="sum1" style="rounded=0;whiteSpace=wrap;html=1;" parent="1" vertex="1">
          <mxGeometry x="707.09" y="187.84" width="40" height="190" as="geometry" />
        </mxCell>
        <mxCell id="QZXlK6RzlSNB_sEMwjah-41" style="edgeStyle=orthogonalEdgeStyle;rounded=0;orthogonalLoop=1;jettySize=auto;html=1;exitX=1;exitY=0.5;exitDx=0;exitDy=0;entryX=0;entryY=0.5;entryDx=0;entryDy=0;" parent="1" source="QZXlK6RzlSNB_sEMwjah-1" target="QZXlK6RzlSNB_sEMwjah-40" edge="1">
          <mxGeometry relative="1" as="geometry" />
        </mxCell>
        <mxCell id="QZXlK6RzlSNB_sEMwjah-1" value="n_mem[0]" style="rounded=0;whiteSpace=wrap;html=1;" parent="1" vertex="1">
          <mxGeometry x="87.09" y="177.84" width="60" height="30" as="geometry" />
        </mxCell>
        <mxCell id="QZXlK6RzlSNB_sEMwjah-46" style="edgeStyle=orthogonalEdgeStyle;rounded=0;orthogonalLoop=1;jettySize=auto;html=1;exitX=1;exitY=0.5;exitDx=0;exitDy=0;entryX=0;entryY=0.5;entryDx=0;entryDy=0;" parent="1" source="QZXlK6RzlSNB_sEMwjah-2" target="QZXlK6RzlSNB_sEMwjah-45" edge="1">
          <mxGeometry relative="1" as="geometry" />
        </mxCell>
        <mxCell id="QZXlK6RzlSNB_sEMwjah-2" value="n_mem[1]" style="rounded=0;whiteSpace=wrap;html=1;" parent="1" vertex="1">
          <mxGeometry x="87.09" y="227.84" width="60" height="30" as="geometry" />
        </mxCell>
        <mxCell id="QZXlK6RzlSNB_sEMwjah-48" style="edgeStyle=orthogonalEdgeStyle;rounded=0;orthogonalLoop=1;jettySize=auto;html=1;exitX=1;exitY=0.5;exitDx=0;exitDy=0;entryX=0;entryY=0.5;entryDx=0;entryDy=0;" parent="1" source="QZXlK6RzlSNB_sEMwjah-4" target="QZXlK6RzlSNB_sEMwjah-47" edge="1">
          <mxGeometry relative="1" as="geometry" />
        </mxCell>
        <mxCell id="QZXlK6RzlSNB_sEMwjah-4" value="n_mem[2]" style="rounded=0;whiteSpace=wrap;html=1;" parent="1" vertex="1">
          <mxGeometry x="87.09" y="277.84000000000003" width="60" height="30" as="geometry" />
        </mxCell>
        <mxCell id="QZXlK6RzlSNB_sEMwjah-5" value="n_mem[3]" style="rounded=0;whiteSpace=wrap;html=1;" parent="1" vertex="1">
          <mxGeometry x="87.09" y="327.84000000000003" width="60" height="30" as="geometry" />
        </mxCell>
        <mxCell id="QZXlK6RzlSNB_sEMwjah-10" value="n_mem[4]" style="rounded=0;whiteSpace=wrap;html=1;" parent="1" vertex="1">
          <mxGeometry x="87.09" y="377.84000000000003" width="60" height="30" as="geometry" />
        </mxCell>
        <mxCell id="QZXlK6RzlSNB_sEMwjah-12" value="n_mem[23]" style="rounded=0;whiteSpace=wrap;html=1;" parent="1" vertex="1">
          <mxGeometry x="87.09" y="477.84000000000003" width="60" height="30" as="geometry" />
        </mxCell>
        <mxCell id="QZXlK6RzlSNB_sEMwjah-27" style="edgeStyle=orthogonalEdgeStyle;rounded=0;orthogonalLoop=1;jettySize=auto;html=1;exitX=1;exitY=0.5;exitDx=0;exitDy=0;entryX=0;entryY=0.5;entryDx=0;entryDy=0;" parent="1" source="QZXlK6RzlSNB_sEMwjah-13" target="QZXlK6RzlSNB_sEMwjah-2" edge="1">
          <mxGeometry relative="1" as="geometry" />
        </mxCell>
        <mxCell id="QZXlK6RzlSNB_sEMwjah-13" value="f_&lt;br&gt;mem[0]" style="rounded=0;whiteSpace=wrap;html=1;" parent="1" vertex="1">
          <mxGeometry x="10" y="227.84" width="47.09" height="30" as="geometry" />
        </mxCell>
        <mxCell id="QZXlK6RzlSNB_sEMwjah-28" style="edgeStyle=orthogonalEdgeStyle;rounded=0;orthogonalLoop=1;jettySize=auto;html=1;exitX=1;exitY=0.5;exitDx=0;exitDy=0;entryX=0;entryY=0.5;entryDx=0;entryDy=0;" parent="1" source="QZXlK6RzlSNB_sEMwjah-14" target="QZXlK6RzlSNB_sEMwjah-4" edge="1">
          <mxGeometry relative="1" as="geometry" />
        </mxCell>
        <mxCell id="QZXlK6RzlSNB_sEMwjah-14" value="f_&lt;br&gt;mem[1]" style="rounded=0;whiteSpace=wrap;html=1;" parent="1" vertex="1">
          <mxGeometry x="10" y="277.84" width="47.09" height="30" as="geometry" />
        </mxCell>
        <mxCell id="QZXlK6RzlSNB_sEMwjah-29" style="edgeStyle=orthogonalEdgeStyle;rounded=0;orthogonalLoop=1;jettySize=auto;html=1;exitX=1;exitY=0.5;exitDx=0;exitDy=0;entryX=0;entryY=0.5;entryDx=0;entryDy=0;" parent="1" source="QZXlK6RzlSNB_sEMwjah-15" target="QZXlK6RzlSNB_sEMwjah-5" edge="1">
          <mxGeometry relative="1" as="geometry" />
        </mxCell>
        <mxCell id="QZXlK6RzlSNB_sEMwjah-15" value="f_&lt;br&gt;mem[2]" style="rounded=0;whiteSpace=wrap;html=1;" parent="1" vertex="1">
          <mxGeometry x="10" y="327.84" width="47.09" height="30" as="geometry" />
        </mxCell>
        <mxCell id="QZXlK6RzlSNB_sEMwjah-30" style="edgeStyle=orthogonalEdgeStyle;rounded=0;orthogonalLoop=1;jettySize=auto;html=1;exitX=1;exitY=0.5;exitDx=0;exitDy=0;entryX=0;entryY=0.5;entryDx=0;entryDy=0;" parent="1" source="QZXlK6RzlSNB_sEMwjah-16" target="QZXlK6RzlSNB_sEMwjah-10" edge="1">
          <mxGeometry relative="1" as="geometry" />
        </mxCell>
        <mxCell id="QZXlK6RzlSNB_sEMwjah-16" value="f_&lt;br&gt;mem[3]" style="rounded=0;whiteSpace=wrap;html=1;" parent="1" vertex="1">
          <mxGeometry x="10" y="377.84" width="47.09" height="30" as="geometry" />
        </mxCell>
        <mxCell id="QZXlK6RzlSNB_sEMwjah-38" style="edgeStyle=orthogonalEdgeStyle;rounded=0;orthogonalLoop=1;jettySize=auto;html=1;exitX=1;exitY=0.5;exitDx=0;exitDy=0;entryX=0;entryY=0.5;entryDx=0;entryDy=0;" parent="1" source="QZXlK6RzlSNB_sEMwjah-18" target="QZXlK6RzlSNB_sEMwjah-12" edge="1">
          <mxGeometry relative="1" as="geometry" />
        </mxCell>
        <mxCell id="QZXlK6RzlSNB_sEMwjah-18" value="f_&lt;br&gt;mem[23]" style="rounded=0;whiteSpace=wrap;html=1;" parent="1" vertex="1">
          <mxGeometry x="10" y="477.84" width="47.09" height="30" as="geometry" />
        </mxCell>
        <mxCell id="QZXlK6RzlSNB_sEMwjah-19" value="f_&lt;br&gt;mem[23]" style="rounded=0;whiteSpace=wrap;html=1;" parent="1" vertex="1">
          <mxGeometry x="10" y="527.84" width="47.09" height="30" as="geometry" />
        </mxCell>
        <mxCell id="QZXlK6RzlSNB_sEMwjah-24" value="" style="endArrow=classic;html=1;rounded=0;exitX=0;exitY=1;exitDx=0;exitDy=0;entryX=1;entryY=0;entryDx=0;entryDy=0;dashed=1;" parent="1" source="QZXlK6RzlSNB_sEMwjah-1" target="QZXlK6RzlSNB_sEMwjah-13" edge="1">
          <mxGeometry width="50" height="50" relative="1" as="geometry">
            <mxPoint x="167.09" y="357.84000000000003" as="sourcePoint" />
            <mxPoint x="217.09" y="307.84000000000003" as="targetPoint" />
          </mxGeometry>
        </mxCell>
        <mxCell id="QZXlK6RzlSNB_sEMwjah-25" value="" style="endArrow=classic;html=1;rounded=0;exitX=0;exitY=1;exitDx=0;exitDy=0;entryX=1;entryY=0;entryDx=0;entryDy=0;dashed=1;" parent="1" source="QZXlK6RzlSNB_sEMwjah-2" target="QZXlK6RzlSNB_sEMwjah-14" edge="1">
          <mxGeometry width="50" height="50" relative="1" as="geometry">
            <mxPoint x="167.09" y="357.84000000000003" as="sourcePoint" />
            <mxPoint x="217.09" y="307.84000000000003" as="targetPoint" />
          </mxGeometry>
        </mxCell>
        <mxCell id="QZXlK6RzlSNB_sEMwjah-26" value="" style="endArrow=classic;html=1;rounded=0;exitX=0;exitY=1;exitDx=0;exitDy=0;entryX=1;entryY=0;entryDx=0;entryDy=0;dashed=1;" parent="1" source="QZXlK6RzlSNB_sEMwjah-4" target="QZXlK6RzlSNB_sEMwjah-15" edge="1">
          <mxGeometry width="50" height="50" relative="1" as="geometry">
            <mxPoint x="167.09" y="357.84000000000003" as="sourcePoint" />
            <mxPoint x="217.09" y="307.84000000000003" as="targetPoint" />
          </mxGeometry>
        </mxCell>
        <mxCell id="QZXlK6RzlSNB_sEMwjah-32" value="" style="endArrow=classic;html=1;rounded=0;exitX=0;exitY=1;exitDx=0;exitDy=0;entryX=1;entryY=0;entryDx=0;entryDy=0;dashed=1;" parent="1" source="QZXlK6RzlSNB_sEMwjah-5" target="QZXlK6RzlSNB_sEMwjah-16" edge="1">
          <mxGeometry width="50" height="50" relative="1" as="geometry">
            <mxPoint x="167.09" y="357.84000000000003" as="sourcePoint" />
            <mxPoint x="217.09" y="307.84000000000003" as="targetPoint" />
          </mxGeometry>
        </mxCell>
        <mxCell id="QZXlK6RzlSNB_sEMwjah-34" value="data" style="edgeStyle=orthogonalEdgeStyle;rounded=0;orthogonalLoop=1;jettySize=auto;html=1;exitX=1;exitY=0.5;exitDx=0;exitDy=0;entryX=0;entryY=0.5;entryDx=0;entryDy=0;" parent="1" target="QZXlK6RzlSNB_sEMwjah-1" edge="1">
          <mxGeometry x="0.2547" y="10" relative="1" as="geometry">
            <mxPoint x="7.09" y="192.84" as="sourcePoint" />
            <mxPoint as="offset" />
          </mxGeometry>
        </mxCell>
        <mxCell id="QZXlK6RzlSNB_sEMwjah-35" value="" style="endArrow=classic;html=1;rounded=0;exitX=0;exitY=1;exitDx=0;exitDy=0;entryX=1;entryY=0;entryDx=0;entryDy=0;dashed=1;" parent="1" source="QZXlK6RzlSNB_sEMwjah-10" edge="1">
          <mxGeometry width="50" height="50" relative="1" as="geometry">
            <mxPoint x="137.09" y="427.84000000000003" as="sourcePoint" />
            <mxPoint x="57.09" y="427.84000000000003" as="targetPoint" />
          </mxGeometry>
        </mxCell>
        <mxCell id="QZXlK6RzlSNB_sEMwjah-37" value="" style="endArrow=classic;html=1;rounded=0;exitX=0;exitY=1;exitDx=0;exitDy=0;entryX=1;entryY=0;entryDx=0;entryDy=0;dashed=1;" parent="1" target="QZXlK6RzlSNB_sEMwjah-18" edge="1">
          <mxGeometry width="50" height="50" relative="1" as="geometry">
            <mxPoint x="87.09" y="457.84000000000003" as="sourcePoint" />
            <mxPoint x="187.09" y="377.84000000000003" as="targetPoint" />
          </mxGeometry>
        </mxCell>
        <mxCell id="QZXlK6RzlSNB_sEMwjah-39" value="" style="endArrow=classic;html=1;rounded=0;entryX=1;entryY=0;entryDx=0;entryDy=0;exitX=0;exitY=1;exitDx=0;exitDy=0;dashed=1;" parent="1" source="QZXlK6RzlSNB_sEMwjah-12" target="QZXlK6RzlSNB_sEMwjah-19" edge="1">
          <mxGeometry width="50" height="50" relative="1" as="geometry">
            <mxPoint x="137.09" y="427.84000000000003" as="sourcePoint" />
            <mxPoint x="187.09" y="377.84000000000003" as="targetPoint" />
          </mxGeometry>
        </mxCell>
        <mxCell id="QZXlK6RzlSNB_sEMwjah-40" value="buffer1[0]" style="rounded=0;whiteSpace=wrap;html=1;" parent="1" vertex="1">
          <mxGeometry x="177.09" y="177.84" width="60" height="30" as="geometry" />
        </mxCell>
        <mxCell id="QZXlK6RzlSNB_sEMwjah-45" value="buffer1[1]" style="rounded=0;whiteSpace=wrap;html=1;" parent="1" vertex="1">
          <mxGeometry x="177.09" y="227.84" width="60" height="30" as="geometry" />
        </mxCell>
        <mxCell id="QZXlK6RzlSNB_sEMwjah-47" value="buffer1[2]" style="rounded=0;whiteSpace=wrap;html=1;" parent="1" vertex="1">
          <mxGeometry x="177.09" y="277.84000000000003" width="60" height="30" as="geometry" />
        </mxCell>
        <mxCell id="QZXlK6RzlSNB_sEMwjah-49" style="edgeStyle=orthogonalEdgeStyle;rounded=0;orthogonalLoop=1;jettySize=auto;html=1;exitX=1;exitY=0.5;exitDx=0;exitDy=0;entryX=0;entryY=0.5;entryDx=0;entryDy=0;" parent="1" target="QZXlK6RzlSNB_sEMwjah-50" edge="1">
          <mxGeometry relative="1" as="geometry">
            <mxPoint x="147.09" y="342.84000000000003" as="sourcePoint" />
          </mxGeometry>
        </mxCell>
        <mxCell id="QZXlK6RzlSNB_sEMwjah-50" value="buffer1[3]" style="rounded=0;whiteSpace=wrap;html=1;" parent="1" vertex="1">
          <mxGeometry x="177.09" y="327.84000000000003" width="60" height="30" as="geometry" />
        </mxCell>
        <mxCell id="QZXlK6RzlSNB_sEMwjah-51" style="edgeStyle=orthogonalEdgeStyle;rounded=0;orthogonalLoop=1;jettySize=auto;html=1;exitX=1;exitY=0.5;exitDx=0;exitDy=0;entryX=0;entryY=0.5;entryDx=0;entryDy=0;" parent="1" target="QZXlK6RzlSNB_sEMwjah-52" edge="1">
          <mxGeometry relative="1" as="geometry">
            <mxPoint x="147.09" y="392.84000000000003" as="sourcePoint" />
          </mxGeometry>
        </mxCell>
        <mxCell id="QZXlK6RzlSNB_sEMwjah-52" value="buffer1[4]" style="rounded=0;whiteSpace=wrap;html=1;" parent="1" vertex="1">
          <mxGeometry x="177.09" y="377.84000000000003" width="60" height="30" as="geometry" />
        </mxCell>
        <mxCell id="QZXlK6RzlSNB_sEMwjah-55" style="edgeStyle=orthogonalEdgeStyle;rounded=0;orthogonalLoop=1;jettySize=auto;html=1;exitX=1;exitY=0.5;exitDx=0;exitDy=0;entryX=0;entryY=0.5;entryDx=0;entryDy=0;" parent="1" target="QZXlK6RzlSNB_sEMwjah-56" edge="1">
          <mxGeometry relative="1" as="geometry">
            <mxPoint x="147.09" y="492.84000000000003" as="sourcePoint" />
          </mxGeometry>
        </mxCell>
        <mxCell id="QZXlK6RzlSNB_sEMwjah-56" value="buffer1[23]" style="rounded=0;whiteSpace=wrap;html=1;" parent="1" vertex="1">
          <mxGeometry x="177.09" y="477.84000000000003" width="60" height="30" as="geometry" />
        </mxCell>
        <mxCell id="QZXlK6RzlSNB_sEMwjah-57" value="clk" style="endArrow=none;html=1;rounded=0;strokeColor=#4A4A4A;" parent="1" edge="1">
          <mxGeometry x="-0.8095" y="10" width="50" height="50" relative="1" as="geometry">
            <mxPoint x="12.09" y="82.84" as="sourcePoint" />
            <mxPoint x="947.09" y="82.84" as="targetPoint" />
            <Array as="points">
              <mxPoint x="152.09" y="82.84" />
            </Array>
            <mxPoint as="offset" />
          </mxGeometry>
        </mxCell>
        <mxCell id="QZXlK6RzlSNB_sEMwjah-59" value="" style="endArrow=none;html=1;rounded=0;strokeColor=#4A4A4A;" parent="1" edge="1">
          <mxGeometry width="50" height="50" relative="1" as="geometry">
            <mxPoint x="77.09" y="485" as="sourcePoint" />
            <mxPoint x="77.09" y="80" as="targetPoint" />
          </mxGeometry>
        </mxCell>
        <mxCell id="QZXlK6RzlSNB_sEMwjah-63" value="" style="endArrow=classic;html=1;rounded=0;entryX=1;entryY=0.25;entryDx=0;entryDy=0;strokeColor=#4A4A4A;" parent="1" edge="1">
          <mxGeometry width="50" height="50" relative="1" as="geometry">
            <mxPoint x="77.09" y="235" as="sourcePoint" />
            <mxPoint x="57.09" y="235" as="targetPoint" />
          </mxGeometry>
        </mxCell>
        <mxCell id="QZXlK6RzlSNB_sEMwjah-64" value="" style="endArrow=classic;html=1;rounded=0;entryX=1;entryY=0.25;entryDx=0;entryDy=0;strokeColor=#4A4A4A;" parent="1" edge="1">
          <mxGeometry width="50" height="50" relative="1" as="geometry">
            <mxPoint x="77.09" y="285" as="sourcePoint" />
            <mxPoint x="57.09" y="285" as="targetPoint" />
          </mxGeometry>
        </mxCell>
        <mxCell id="QZXlK6RzlSNB_sEMwjah-65" value="" style="endArrow=classic;html=1;rounded=0;entryX=1;entryY=0.25;entryDx=0;entryDy=0;strokeColor=#4A4A4A;" parent="1" edge="1">
          <mxGeometry width="50" height="50" relative="1" as="geometry">
            <mxPoint x="77.09" y="335" as="sourcePoint" />
            <mxPoint x="57.09" y="335" as="targetPoint" />
          </mxGeometry>
        </mxCell>
        <mxCell id="QZXlK6RzlSNB_sEMwjah-66" value="" style="endArrow=classic;html=1;rounded=0;entryX=1;entryY=0.25;entryDx=0;entryDy=0;strokeColor=#4A4A4A;" parent="1" edge="1">
          <mxGeometry width="50" height="50" relative="1" as="geometry">
            <mxPoint x="77.09" y="385" as="sourcePoint" />
            <mxPoint x="57.09" y="385" as="targetPoint" />
          </mxGeometry>
        </mxCell>
        <mxCell id="QZXlK6RzlSNB_sEMwjah-69" value="" style="endArrow=classic;html=1;rounded=0;entryX=1;entryY=0.25;entryDx=0;entryDy=0;strokeColor=#4A4A4A;" parent="1" edge="1">
          <mxGeometry width="50" height="50" relative="1" as="geometry">
            <mxPoint x="77.09" y="485" as="sourcePoint" />
            <mxPoint x="57.09" y="485" as="targetPoint" />
          </mxGeometry>
        </mxCell>
        <mxCell id="QZXlK6RzlSNB_sEMwjah-70" value="" style="endArrow=none;html=1;rounded=0;strokeColor=#4A4A4A;" parent="1" edge="1">
          <mxGeometry width="50" height="50" relative="1" as="geometry">
            <mxPoint x="257.09" y="487.84000000000003" as="sourcePoint" />
            <mxPoint x="257.09" y="82.84" as="targetPoint" />
          </mxGeometry>
        </mxCell>
        <mxCell id="QZXlK6RzlSNB_sEMwjah-71" value="" style="endArrow=classic;html=1;rounded=0;entryX=1;entryY=0.25;entryDx=0;entryDy=0;strokeColor=#4A4A4A;" parent="1" edge="1">
          <mxGeometry width="50" height="50" relative="1" as="geometry">
            <mxPoint x="257.09" y="185.84" as="sourcePoint" />
            <mxPoint x="237.09" y="185.84" as="targetPoint" />
          </mxGeometry>
        </mxCell>
        <mxCell id="QZXlK6RzlSNB_sEMwjah-72" value="" style="endArrow=classic;html=1;rounded=0;entryX=1;entryY=0.25;entryDx=0;entryDy=0;strokeColor=#4A4A4A;" parent="1" edge="1">
          <mxGeometry width="50" height="50" relative="1" as="geometry">
            <mxPoint x="257.09" y="237.84" as="sourcePoint" />
            <mxPoint x="237.09" y="237.84" as="targetPoint" />
          </mxGeometry>
        </mxCell>
        <mxCell id="QZXlK6RzlSNB_sEMwjah-73" value="" style="endArrow=classic;html=1;rounded=0;entryX=1;entryY=0.25;entryDx=0;entryDy=0;strokeColor=#4A4A4A;" parent="1" edge="1">
          <mxGeometry width="50" height="50" relative="1" as="geometry">
            <mxPoint x="257.09" y="287.84000000000003" as="sourcePoint" />
            <mxPoint x="237.09" y="287.84000000000003" as="targetPoint" />
          </mxGeometry>
        </mxCell>
        <mxCell id="QZXlK6RzlSNB_sEMwjah-74" value="" style="endArrow=classic;html=1;rounded=0;entryX=1;entryY=0.25;entryDx=0;entryDy=0;strokeColor=#4A4A4A;" parent="1" edge="1">
          <mxGeometry width="50" height="50" relative="1" as="geometry">
            <mxPoint x="257.09" y="337.84000000000003" as="sourcePoint" />
            <mxPoint x="237.09" y="337.84000000000003" as="targetPoint" />
          </mxGeometry>
        </mxCell>
        <mxCell id="QZXlK6RzlSNB_sEMwjah-75" value="" style="endArrow=classic;html=1;rounded=0;entryX=1;entryY=0.25;entryDx=0;entryDy=0;strokeColor=#4A4A4A;" parent="1" edge="1">
          <mxGeometry width="50" height="50" relative="1" as="geometry">
            <mxPoint x="257.09" y="387.84000000000003" as="sourcePoint" />
            <mxPoint x="237.09" y="387.84000000000003" as="targetPoint" />
          </mxGeometry>
        </mxCell>
        <mxCell id="QZXlK6RzlSNB_sEMwjah-77" value="" style="endArrow=classic;html=1;rounded=0;entryX=1;entryY=0.25;entryDx=0;entryDy=0;strokeColor=#4A4A4A;" parent="1" edge="1">
          <mxGeometry width="50" height="50" relative="1" as="geometry">
            <mxPoint x="257.09" y="487.84000000000003" as="sourcePoint" />
            <mxPoint x="237.09" y="487.84000000000003" as="targetPoint" />
          </mxGeometry>
        </mxCell>
        <mxCell id="QZXlK6RzlSNB_sEMwjah-78" value="buffer1[0]" style="rounded=0;whiteSpace=wrap;html=1;" parent="1" vertex="1">
          <mxGeometry x="177.09" y="177.84" width="60" height="30" as="geometry" />
        </mxCell>
        <mxCell id="QZXlK6RzlSNB_sEMwjah-88" style="edgeStyle=orthogonalEdgeStyle;rounded=0;orthogonalLoop=1;jettySize=auto;html=1;exitX=0.995;exitY=0.806;exitDx=0;exitDy=0;dashed=1;dashPattern=1 4;exitPerimeter=0;" parent="1" edge="1">
          <mxGeometry relative="1" as="geometry">
            <mxPoint x="447.38999999999993" y="222.58" as="targetPoint" />
            <mxPoint x="391.09000000000003" y="222.87999999999997" as="sourcePoint" />
          </mxGeometry>
        </mxCell>
        <mxCell id="QZXlK6RzlSNB_sEMwjah-89" style="edgeStyle=orthogonalEdgeStyle;rounded=0;orthogonalLoop=1;jettySize=auto;html=1;exitX=1;exitY=0.5;exitDx=0;exitDy=0;" parent="1" edge="1">
          <mxGeometry relative="1" as="geometry">
            <mxPoint x="447.38999999999993" y="207.58" as="targetPoint" />
            <mxPoint x="391.39" y="207.58" as="sourcePoint" />
          </mxGeometry>
        </mxCell>
        <mxCell id="QZXlK6RzlSNB_sEMwjah-79" value="mul1[0]&lt;div&gt;mul2[0]&lt;/div&gt;&lt;div&gt;minus1[0]&lt;/div&gt;" style="rounded=0;whiteSpace=wrap;html=1;" parent="1" vertex="1">
          <mxGeometry x="331.09" y="177.84" width="60" height="50" as="geometry" />
        </mxCell>
        <mxCell id="QZXlK6RzlSNB_sEMwjah-80" value="con[0]" style="rounded=0;whiteSpace=wrap;html=1;" parent="1" vertex="1">
          <mxGeometry x="267.09" y="197.84" width="40" height="20" as="geometry" />
        </mxCell>
        <mxCell id="QZXlK6RzlSNB_sEMwjah-82" style="edgeStyle=orthogonalEdgeStyle;rounded=0;orthogonalLoop=1;jettySize=auto;html=1;exitX=1;exitY=0.5;exitDx=0;exitDy=0;entryX=0.018;entryY=0.288;entryDx=0;entryDy=0;entryPerimeter=0;" parent="1" source="QZXlK6RzlSNB_sEMwjah-78" target="QZXlK6RzlSNB_sEMwjah-79" edge="1">
          <mxGeometry relative="1" as="geometry" />
        </mxCell>
        <mxCell id="QZXlK6RzlSNB_sEMwjah-87" style="edgeStyle=orthogonalEdgeStyle;rounded=0;orthogonalLoop=1;jettySize=auto;html=1;exitX=1;exitY=0.5;exitDx=0;exitDy=0;entryX=0;entryY=0.601;entryDx=0;entryDy=0;entryPerimeter=0;" parent="1" source="QZXlK6RzlSNB_sEMwjah-80" target="QZXlK6RzlSNB_sEMwjah-79" edge="1">
          <mxGeometry relative="1" as="geometry" />
        </mxCell>
        <mxCell id="QZXlK6RzlSNB_sEMwjah-94" value="mul1[1]&lt;div&gt;mul2[1]&lt;/div&gt;&lt;div&gt;minus1[1]&lt;/div&gt;" style="rounded=0;whiteSpace=wrap;html=1;" parent="1" vertex="1">
          <mxGeometry x="331.09" y="227.84" width="60" height="50" as="geometry" />
        </mxCell>
        <mxCell id="QZXlK6RzlSNB_sEMwjah-95" value="con[1]" style="rounded=0;whiteSpace=wrap;html=1;" parent="1" vertex="1">
          <mxGeometry x="267.09" y="247.84" width="40" height="20" as="geometry" />
        </mxCell>
        <mxCell id="QZXlK6RzlSNB_sEMwjah-96" style="edgeStyle=orthogonalEdgeStyle;rounded=0;orthogonalLoop=1;jettySize=auto;html=1;exitX=1;exitY=0.5;exitDx=0;exitDy=0;entryX=0;entryY=0.601;entryDx=0;entryDy=0;entryPerimeter=0;" parent="1" source="QZXlK6RzlSNB_sEMwjah-95" target="QZXlK6RzlSNB_sEMwjah-94" edge="1">
          <mxGeometry relative="1" as="geometry" />
        </mxCell>
        <mxCell id="QZXlK6RzlSNB_sEMwjah-100" value="mul1[2]&lt;div&gt;mul2[2]&lt;/div&gt;&lt;div&gt;minus1[2]&lt;/div&gt;" style="rounded=0;whiteSpace=wrap;html=1;" parent="1" vertex="1">
          <mxGeometry x="331.09" y="277.84000000000003" width="60" height="50" as="geometry" />
        </mxCell>
        <mxCell id="QZXlK6RzlSNB_sEMwjah-101" value="con[2]" style="rounded=0;whiteSpace=wrap;html=1;" parent="1" vertex="1">
          <mxGeometry x="267.09" y="297.84000000000003" width="40" height="20" as="geometry" />
        </mxCell>
        <mxCell id="QZXlK6RzlSNB_sEMwjah-102" style="edgeStyle=orthogonalEdgeStyle;rounded=0;orthogonalLoop=1;jettySize=auto;html=1;exitX=1;exitY=0.5;exitDx=0;exitDy=0;entryX=0;entryY=0.601;entryDx=0;entryDy=0;entryPerimeter=0;" parent="1" source="QZXlK6RzlSNB_sEMwjah-101" target="QZXlK6RzlSNB_sEMwjah-100" edge="1">
          <mxGeometry relative="1" as="geometry" />
        </mxCell>
        <mxCell id="QZXlK6RzlSNB_sEMwjah-106" value="mul1[3]&lt;div&gt;mul2[3]&lt;/div&gt;&lt;div&gt;minus1[3]&lt;/div&gt;" style="rounded=0;whiteSpace=wrap;html=1;" parent="1" vertex="1">
          <mxGeometry x="331.09" y="327.84000000000003" width="60" height="50" as="geometry" />
        </mxCell>
        <mxCell id="QZXlK6RzlSNB_sEMwjah-107" value="con[3]" style="rounded=0;whiteSpace=wrap;html=1;" parent="1" vertex="1">
          <mxGeometry x="267.09" y="347.84000000000003" width="40" height="20" as="geometry" />
        </mxCell>
        <mxCell id="QZXlK6RzlSNB_sEMwjah-108" style="edgeStyle=orthogonalEdgeStyle;rounded=0;orthogonalLoop=1;jettySize=auto;html=1;exitX=1;exitY=0.5;exitDx=0;exitDy=0;entryX=0;entryY=0.601;entryDx=0;entryDy=0;entryPerimeter=0;" parent="1" source="QZXlK6RzlSNB_sEMwjah-107" target="QZXlK6RzlSNB_sEMwjah-106" edge="1">
          <mxGeometry relative="1" as="geometry" />
        </mxCell>
        <mxCell id="QZXlK6RzlSNB_sEMwjah-112" value="mul1[4]&lt;div&gt;mul2[4]&lt;/div&gt;&lt;div&gt;minus1[4]&lt;/div&gt;" style="rounded=0;whiteSpace=wrap;html=1;" parent="1" vertex="1">
          <mxGeometry x="331.09" y="377.84000000000003" width="60" height="50" as="geometry" />
        </mxCell>
        <mxCell id="QZXlK6RzlSNB_sEMwjah-113" value="con[4]" style="rounded=0;whiteSpace=wrap;html=1;" parent="1" vertex="1">
          <mxGeometry x="267.09" y="397.84000000000003" width="40" height="20" as="geometry" />
        </mxCell>
        <mxCell id="QZXlK6RzlSNB_sEMwjah-114" style="edgeStyle=orthogonalEdgeStyle;rounded=0;orthogonalLoop=1;jettySize=auto;html=1;exitX=1;exitY=0.5;exitDx=0;exitDy=0;entryX=0;entryY=0.601;entryDx=0;entryDy=0;entryPerimeter=0;" parent="1" source="QZXlK6RzlSNB_sEMwjah-113" target="QZXlK6RzlSNB_sEMwjah-112" edge="1">
          <mxGeometry relative="1" as="geometry" />
        </mxCell>
        <mxCell id="QZXlK6RzlSNB_sEMwjah-116" style="edgeStyle=orthogonalEdgeStyle;rounded=0;orthogonalLoop=1;jettySize=auto;html=1;exitX=1;exitY=0.5;exitDx=0;exitDy=0;entryX=-0.002;entryY=0.31;entryDx=0;entryDy=0;entryPerimeter=0;" parent="1" source="QZXlK6RzlSNB_sEMwjah-45" target="QZXlK6RzlSNB_sEMwjah-94" edge="1">
          <mxGeometry relative="1" as="geometry" />
        </mxCell>
        <mxCell id="QZXlK6RzlSNB_sEMwjah-117" style="edgeStyle=orthogonalEdgeStyle;rounded=0;orthogonalLoop=1;jettySize=auto;html=1;exitX=1;exitY=0.5;exitDx=0;exitDy=0;entryX=0.009;entryY=0.3;entryDx=0;entryDy=0;entryPerimeter=0;" parent="1" source="QZXlK6RzlSNB_sEMwjah-47" target="QZXlK6RzlSNB_sEMwjah-100" edge="1">
          <mxGeometry relative="1" as="geometry" />
        </mxCell>
        <mxCell id="QZXlK6RzlSNB_sEMwjah-118" style="edgeStyle=orthogonalEdgeStyle;rounded=0;orthogonalLoop=1;jettySize=auto;html=1;exitX=1;exitY=0.5;exitDx=0;exitDy=0;entryX=-0.007;entryY=0.293;entryDx=0;entryDy=0;entryPerimeter=0;" parent="1" source="QZXlK6RzlSNB_sEMwjah-50" target="QZXlK6RzlSNB_sEMwjah-106" edge="1">
          <mxGeometry relative="1" as="geometry" />
        </mxCell>
        <mxCell id="QZXlK6RzlSNB_sEMwjah-119" style="edgeStyle=orthogonalEdgeStyle;rounded=0;orthogonalLoop=1;jettySize=auto;html=1;exitX=1;exitY=0.5;exitDx=0;exitDy=0;entryX=-0.007;entryY=0.302;entryDx=0;entryDy=0;entryPerimeter=0;" parent="1" source="QZXlK6RzlSNB_sEMwjah-52" target="QZXlK6RzlSNB_sEMwjah-112" edge="1">
          <mxGeometry relative="1" as="geometry" />
        </mxCell>
        <mxCell id="QZXlK6RzlSNB_sEMwjah-130" value="mul1[23]&lt;div&gt;mul2[23]&lt;/div&gt;&lt;div&gt;minus1[23]&lt;/div&gt;" style="rounded=0;whiteSpace=wrap;html=1;" parent="1" vertex="1">
          <mxGeometry x="331.09" y="477.84000000000003" width="60" height="50" as="geometry" />
        </mxCell>
        <mxCell id="QZXlK6RzlSNB_sEMwjah-131" value="con[23]" style="rounded=0;whiteSpace=wrap;html=1;" parent="1" vertex="1">
          <mxGeometry x="267.09" y="497.84000000000003" width="40" height="20" as="geometry" />
        </mxCell>
        <mxCell id="QZXlK6RzlSNB_sEMwjah-132" style="edgeStyle=orthogonalEdgeStyle;rounded=0;orthogonalLoop=1;jettySize=auto;html=1;exitX=1;exitY=0.5;exitDx=0;exitDy=0;entryX=0;entryY=0.601;entryDx=0;entryDy=0;entryPerimeter=0;" parent="1" source="QZXlK6RzlSNB_sEMwjah-131" target="QZXlK6RzlSNB_sEMwjah-130" edge="1">
          <mxGeometry relative="1" as="geometry" />
        </mxCell>
        <mxCell id="QZXlK6RzlSNB_sEMwjah-133" style="edgeStyle=orthogonalEdgeStyle;rounded=0;orthogonalLoop=1;jettySize=auto;html=1;exitX=1;exitY=0.5;exitDx=0;exitDy=0;entryX=0.003;entryY=0.289;entryDx=0;entryDy=0;entryPerimeter=0;" parent="1" source="QZXlK6RzlSNB_sEMwjah-56" target="QZXlK6RzlSNB_sEMwjah-130" edge="1">
          <mxGeometry relative="1" as="geometry" />
        </mxCell>
        <mxCell id="QZXlK6RzlSNB_sEMwjah-136" value="" style="endArrow=classic;html=1;rounded=0;exitX=1;exitY=0.2;exitDx=0;exitDy=0;exitPerimeter=0;" parent="1" edge="1">
          <mxGeometry width="50" height="50" relative="1" as="geometry">
            <mxPoint x="391.39" y="192.58" as="sourcePoint" />
            <mxPoint x="447.38999999999993" y="192.58" as="targetPoint" />
          </mxGeometry>
        </mxCell>
        <mxCell id="QZXlK6RzlSNB_sEMwjah-137" value="" style="endArrow=classic;html=1;rounded=0;entryX=1;entryY=0;entryDx=0;entryDy=0;strokeColor=#4A4A4A;" parent="1" edge="1">
          <mxGeometry width="50" height="50" relative="1" as="geometry">
            <mxPoint x="427.39" y="182.58" as="sourcePoint" />
            <mxPoint x="391.39" y="182.58" as="targetPoint" />
          </mxGeometry>
        </mxCell>
        <mxCell id="QZXlK6RzlSNB_sEMwjah-159" value="mul2[0]*&lt;br&gt;mul1[0]" style="triangle;whiteSpace=wrap;html=1;align=left;" parent="1" vertex="1">
          <mxGeometry x="537.09" y="177.84" width="80" height="50" as="geometry" />
        </mxCell>
        <mxCell id="QZXlK6RzlSNB_sEMwjah-160" style="edgeStyle=orthogonalEdgeStyle;rounded=0;orthogonalLoop=1;jettySize=auto;html=1;dashed=1;dashPattern=1 4;" parent="1" edge="1">
          <mxGeometry relative="1" as="geometry">
            <mxPoint x="637.09" y="217.84" as="targetPoint" />
            <mxPoint x="577.09" y="217.84" as="sourcePoint" />
          </mxGeometry>
        </mxCell>
        <mxCell id="QZXlK6RzlSNB_sEMwjah-161" value="" style="endArrow=classic;html=1;rounded=0;exitX=1;exitY=0.2;exitDx=0;exitDy=0;exitPerimeter=0;" parent="1" edge="1">
          <mxGeometry width="50" height="50" relative="1" as="geometry">
            <mxPoint x="617.09" y="202.6" as="sourcePoint" />
            <mxPoint x="637.09" y="202.84" as="targetPoint" />
          </mxGeometry>
        </mxCell>
        <mxCell id="QZXlK6RzlSNB_sEMwjah-162" value="" style="endArrow=none;html=1;rounded=0;strokeColor=#4A4A4A;" parent="1" edge="1">
          <mxGeometry width="50" height="50" relative="1" as="geometry">
            <mxPoint x="627.09" y="497.84000000000003" as="sourcePoint" />
            <mxPoint x="627.09" y="82.84" as="targetPoint" />
          </mxGeometry>
        </mxCell>
        <mxCell id="QZXlK6RzlSNB_sEMwjah-163" value="" style="endArrow=classic;html=1;rounded=0;strokeColor=#4A4A4A;" parent="1" edge="1">
          <mxGeometry width="50" height="50" relative="1" as="geometry">
            <mxPoint x="627.09" y="187.84" as="sourcePoint" />
            <mxPoint x="577.09" y="187.84" as="targetPoint" />
          </mxGeometry>
        </mxCell>
        <mxCell id="QZXlK6RzlSNB_sEMwjah-192" style="edgeStyle=orthogonalEdgeStyle;rounded=0;orthogonalLoop=1;jettySize=auto;html=1;exitX=0.995;exitY=0.806;exitDx=0;exitDy=0;dashed=1;dashPattern=1 4;exitPerimeter=0;" parent="1" edge="1">
          <mxGeometry relative="1" as="geometry">
            <mxPoint x="447.09" y="272.72" as="targetPoint" />
            <mxPoint x="391.09" y="272.72" as="sourcePoint" />
          </mxGeometry>
        </mxCell>
        <mxCell id="QZXlK6RzlSNB_sEMwjah-193" style="edgeStyle=orthogonalEdgeStyle;rounded=0;orthogonalLoop=1;jettySize=auto;html=1;exitX=1;exitY=0.5;exitDx=0;exitDy=0;" parent="1" edge="1">
          <mxGeometry relative="1" as="geometry">
            <mxPoint x="447.09" y="257.72" as="targetPoint" />
            <mxPoint x="391.09" y="257.72" as="sourcePoint" />
          </mxGeometry>
        </mxCell>
        <mxCell id="QZXlK6RzlSNB_sEMwjah-194" value="" style="endArrow=classic;html=1;rounded=0;exitX=1;exitY=0.2;exitDx=0;exitDy=0;exitPerimeter=0;" parent="1" edge="1">
          <mxGeometry width="50" height="50" relative="1" as="geometry">
            <mxPoint x="391.09" y="242.72" as="sourcePoint" />
            <mxPoint x="447.09" y="242.72" as="targetPoint" />
          </mxGeometry>
        </mxCell>
        <mxCell id="QZXlK6RzlSNB_sEMwjah-195" value="" style="endArrow=classic;html=1;rounded=0;entryX=1;entryY=0;entryDx=0;entryDy=0;strokeColor=#4A4A4A;" parent="1" edge="1">
          <mxGeometry width="50" height="50" relative="1" as="geometry">
            <mxPoint x="427.09" y="232.72" as="sourcePoint" />
            <mxPoint x="391.09" y="232.72" as="targetPoint" />
          </mxGeometry>
        </mxCell>
        <mxCell id="QZXlK6RzlSNB_sEMwjah-196" style="edgeStyle=orthogonalEdgeStyle;rounded=0;orthogonalLoop=1;jettySize=auto;html=1;exitX=0.995;exitY=0.806;exitDx=0;exitDy=0;dashed=1;dashPattern=1 4;exitPerimeter=0;" parent="1" edge="1">
          <mxGeometry relative="1" as="geometry">
            <mxPoint x="447.09" y="322.72" as="targetPoint" />
            <mxPoint x="391.09" y="322.72" as="sourcePoint" />
          </mxGeometry>
        </mxCell>
        <mxCell id="QZXlK6RzlSNB_sEMwjah-197" style="edgeStyle=orthogonalEdgeStyle;rounded=0;orthogonalLoop=1;jettySize=auto;html=1;exitX=1;exitY=0.5;exitDx=0;exitDy=0;" parent="1" edge="1">
          <mxGeometry relative="1" as="geometry">
            <mxPoint x="447.09" y="307.72" as="targetPoint" />
            <mxPoint x="391.09" y="307.72" as="sourcePoint" />
          </mxGeometry>
        </mxCell>
        <mxCell id="QZXlK6RzlSNB_sEMwjah-198" value="" style="endArrow=classic;html=1;rounded=0;exitX=1;exitY=0.2;exitDx=0;exitDy=0;exitPerimeter=0;" parent="1" edge="1">
          <mxGeometry width="50" height="50" relative="1" as="geometry">
            <mxPoint x="391.09" y="292.72" as="sourcePoint" />
            <mxPoint x="447.09" y="292.72" as="targetPoint" />
          </mxGeometry>
        </mxCell>
        <mxCell id="QZXlK6RzlSNB_sEMwjah-199" value="" style="endArrow=classic;html=1;rounded=0;entryX=1;entryY=0;entryDx=0;entryDy=0;strokeColor=#4A4A4A;" parent="1" edge="1">
          <mxGeometry width="50" height="50" relative="1" as="geometry">
            <mxPoint x="427.09" y="282.72" as="sourcePoint" />
            <mxPoint x="391.09" y="282.72" as="targetPoint" />
          </mxGeometry>
        </mxCell>
        <mxCell id="QZXlK6RzlSNB_sEMwjah-200" style="edgeStyle=orthogonalEdgeStyle;rounded=0;orthogonalLoop=1;jettySize=auto;html=1;exitX=0.995;exitY=0.806;exitDx=0;exitDy=0;dashed=1;dashPattern=1 4;exitPerimeter=0;" parent="1" edge="1">
          <mxGeometry relative="1" as="geometry">
            <mxPoint x="447.09" y="372.72" as="targetPoint" />
            <mxPoint x="391.09" y="372.72" as="sourcePoint" />
          </mxGeometry>
        </mxCell>
        <mxCell id="QZXlK6RzlSNB_sEMwjah-201" style="edgeStyle=orthogonalEdgeStyle;rounded=0;orthogonalLoop=1;jettySize=auto;html=1;exitX=1;exitY=0.5;exitDx=0;exitDy=0;" parent="1" edge="1">
          <mxGeometry relative="1" as="geometry">
            <mxPoint x="447.09" y="357.72" as="targetPoint" />
            <mxPoint x="391.09" y="357.72" as="sourcePoint" />
          </mxGeometry>
        </mxCell>
        <mxCell id="QZXlK6RzlSNB_sEMwjah-202" value="" style="endArrow=classic;html=1;rounded=0;exitX=1;exitY=0.2;exitDx=0;exitDy=0;exitPerimeter=0;" parent="1" edge="1">
          <mxGeometry width="50" height="50" relative="1" as="geometry">
            <mxPoint x="391.09" y="342.72" as="sourcePoint" />
            <mxPoint x="447.09" y="342.72" as="targetPoint" />
          </mxGeometry>
        </mxCell>
        <mxCell id="QZXlK6RzlSNB_sEMwjah-203" value="" style="endArrow=classic;html=1;rounded=0;entryX=1;entryY=0;entryDx=0;entryDy=0;strokeColor=#4A4A4A;" parent="1" edge="1">
          <mxGeometry width="50" height="50" relative="1" as="geometry">
            <mxPoint x="427.09" y="332.72" as="sourcePoint" />
            <mxPoint x="391.09" y="332.72" as="targetPoint" />
          </mxGeometry>
        </mxCell>
        <mxCell id="QZXlK6RzlSNB_sEMwjah-204" style="edgeStyle=orthogonalEdgeStyle;rounded=0;orthogonalLoop=1;jettySize=auto;html=1;exitX=0.995;exitY=0.806;exitDx=0;exitDy=0;dashed=1;dashPattern=1 4;exitPerimeter=0;" parent="1" edge="1">
          <mxGeometry relative="1" as="geometry">
            <mxPoint x="447.09" y="422.72" as="targetPoint" />
            <mxPoint x="391.09" y="422.72" as="sourcePoint" />
          </mxGeometry>
        </mxCell>
        <mxCell id="QZXlK6RzlSNB_sEMwjah-205" style="edgeStyle=orthogonalEdgeStyle;rounded=0;orthogonalLoop=1;jettySize=auto;html=1;exitX=1;exitY=0.5;exitDx=0;exitDy=0;" parent="1" edge="1">
          <mxGeometry relative="1" as="geometry">
            <mxPoint x="447.09" y="407.72" as="targetPoint" />
            <mxPoint x="391.09" y="407.72" as="sourcePoint" />
          </mxGeometry>
        </mxCell>
        <mxCell id="QZXlK6RzlSNB_sEMwjah-206" value="" style="endArrow=classic;html=1;rounded=0;exitX=1;exitY=0.2;exitDx=0;exitDy=0;exitPerimeter=0;" parent="1" edge="1">
          <mxGeometry width="50" height="50" relative="1" as="geometry">
            <mxPoint x="391.09" y="392.72" as="sourcePoint" />
            <mxPoint x="447.09" y="392.72" as="targetPoint" />
          </mxGeometry>
        </mxCell>
        <mxCell id="QZXlK6RzlSNB_sEMwjah-207" value="" style="endArrow=classic;html=1;rounded=0;entryX=1;entryY=0;entryDx=0;entryDy=0;strokeColor=#4A4A4A;" parent="1" edge="1">
          <mxGeometry width="50" height="50" relative="1" as="geometry">
            <mxPoint x="427.09" y="382.72" as="sourcePoint" />
            <mxPoint x="391.09" y="382.72" as="targetPoint" />
          </mxGeometry>
        </mxCell>
        <mxCell id="QZXlK6RzlSNB_sEMwjah-212" style="edgeStyle=orthogonalEdgeStyle;rounded=0;orthogonalLoop=1;jettySize=auto;html=1;exitX=0.995;exitY=0.806;exitDx=0;exitDy=0;dashed=1;dashPattern=1 4;exitPerimeter=0;" parent="1" edge="1">
          <mxGeometry relative="1" as="geometry">
            <mxPoint x="447.09" y="522.72" as="targetPoint" />
            <mxPoint x="391.09" y="522.72" as="sourcePoint" />
          </mxGeometry>
        </mxCell>
        <mxCell id="QZXlK6RzlSNB_sEMwjah-213" style="edgeStyle=orthogonalEdgeStyle;rounded=0;orthogonalLoop=1;jettySize=auto;html=1;exitX=1;exitY=0.5;exitDx=0;exitDy=0;" parent="1" edge="1">
          <mxGeometry relative="1" as="geometry">
            <mxPoint x="447.09" y="507.72" as="targetPoint" />
            <mxPoint x="391.09" y="507.72" as="sourcePoint" />
          </mxGeometry>
        </mxCell>
        <mxCell id="QZXlK6RzlSNB_sEMwjah-214" value="" style="endArrow=classic;html=1;rounded=0;exitX=1;exitY=0.2;exitDx=0;exitDy=0;exitPerimeter=0;" parent="1" edge="1">
          <mxGeometry width="50" height="50" relative="1" as="geometry">
            <mxPoint x="391.09" y="492.72" as="sourcePoint" />
            <mxPoint x="447.09" y="492.72" as="targetPoint" />
          </mxGeometry>
        </mxCell>
        <mxCell id="QZXlK6RzlSNB_sEMwjah-215" value="" style="endArrow=classic;html=1;rounded=0;entryX=1;entryY=0;entryDx=0;entryDy=0;strokeColor=#4A4A4A;" parent="1" edge="1">
          <mxGeometry width="50" height="50" relative="1" as="geometry">
            <mxPoint x="427.09" y="482.72" as="sourcePoint" />
            <mxPoint x="391.09" y="482.72" as="targetPoint" />
          </mxGeometry>
        </mxCell>
        <mxCell id="QZXlK6RzlSNB_sEMwjah-216" value="mul2[1]*&lt;br&gt;mul1[1]" style="triangle;whiteSpace=wrap;html=1;align=left;" parent="1" vertex="1">
          <mxGeometry x="537.09" y="232.84" width="80" height="50" as="geometry" />
        </mxCell>
        <mxCell id="QZXlK6RzlSNB_sEMwjah-219" value="" style="endArrow=classic;html=1;rounded=0;strokeColor=#4A4A4A;" parent="1" edge="1">
          <mxGeometry width="50" height="50" relative="1" as="geometry">
            <mxPoint x="627.09" y="242.84" as="sourcePoint" />
            <mxPoint x="577.09" y="242.84" as="targetPoint" />
          </mxGeometry>
        </mxCell>
        <mxCell id="QZXlK6RzlSNB_sEMwjah-220" value="mul2[2]*&lt;br&gt;mul1[2]" style="triangle;whiteSpace=wrap;html=1;align=left;" parent="1" vertex="1">
          <mxGeometry x="537.09" y="282.84000000000003" width="80" height="50" as="geometry" />
        </mxCell>
        <mxCell id="QZXlK6RzlSNB_sEMwjah-223" value="" style="endArrow=classic;html=1;rounded=0;strokeColor=#4A4A4A;" parent="1" edge="1">
          <mxGeometry width="50" height="50" relative="1" as="geometry">
            <mxPoint x="627.09" y="292.84000000000003" as="sourcePoint" />
            <mxPoint x="577.09" y="292.84000000000003" as="targetPoint" />
          </mxGeometry>
        </mxCell>
        <mxCell id="QZXlK6RzlSNB_sEMwjah-224" value="mul2[3]*&lt;br&gt;mul1[3]" style="triangle;whiteSpace=wrap;html=1;align=left;" parent="1" vertex="1">
          <mxGeometry x="537.09" y="332.84000000000003" width="80" height="50" as="geometry" />
        </mxCell>
        <mxCell id="QZXlK6RzlSNB_sEMwjah-227" value="" style="endArrow=classic;html=1;rounded=0;strokeColor=#4A4A4A;" parent="1" edge="1">
          <mxGeometry width="50" height="50" relative="1" as="geometry">
            <mxPoint x="627.09" y="342.84000000000003" as="sourcePoint" />
            <mxPoint x="577.09" y="342.84000000000003" as="targetPoint" />
          </mxGeometry>
        </mxCell>
        <mxCell id="QZXlK6RzlSNB_sEMwjah-228" value="mul2[4]*&lt;br&gt;mul1[4]" style="triangle;whiteSpace=wrap;html=1;align=left;" parent="1" vertex="1">
          <mxGeometry x="537.09" y="382.84000000000003" width="80" height="50" as="geometry" />
        </mxCell>
        <mxCell id="QZXlK6RzlSNB_sEMwjah-231" value="" style="endArrow=classic;html=1;rounded=0;strokeColor=#4A4A4A;" parent="1" edge="1">
          <mxGeometry width="50" height="50" relative="1" as="geometry">
            <mxPoint x="627.09" y="392.84000000000003" as="sourcePoint" />
            <mxPoint x="577.09" y="392.84000000000003" as="targetPoint" />
          </mxGeometry>
        </mxCell>
        <mxCell id="QZXlK6RzlSNB_sEMwjah-236" value="mul2[23]*&lt;br&gt;mul1[23]" style="triangle;whiteSpace=wrap;html=1;align=left;" parent="1" vertex="1">
          <mxGeometry x="537.09" y="482.84000000000003" width="80" height="50" as="geometry" />
        </mxCell>
        <mxCell id="QZXlK6RzlSNB_sEMwjah-355" value="+" style="edgeStyle=orthogonalEdgeStyle;rounded=0;orthogonalLoop=1;jettySize=auto;html=1;exitX=1;exitY=0.5;exitDx=0;exitDy=0;" parent="1" source="QZXlK6RzlSNB_sEMwjah-240" edge="1">
          <mxGeometry x="1" y="10" relative="1" as="geometry">
            <mxPoint x="707.09" y="207.84" as="targetPoint" />
            <mxPoint x="10" y="10" as="offset" />
          </mxGeometry>
        </mxCell>
        <mxCell id="QZXlK6RzlSNB_sEMwjah-240" value="result[0]" style="rounded=0;whiteSpace=wrap;html=1;" parent="1" vertex="1">
          <mxGeometry x="637.09" y="187.84" width="50" height="40" as="geometry" />
        </mxCell>
        <mxCell id="QZXlK6RzlSNB_sEMwjah-249" value="buffer2[0]" style="rounded=0;whiteSpace=wrap;html=1;" parent="1" vertex="1">
          <mxGeometry x="447.09" y="187.84" width="60" height="40" as="geometry" />
        </mxCell>
        <mxCell id="QZXlK6RzlSNB_sEMwjah-250" value="" style="endArrow=none;html=1;rounded=0;exitX=-0.1;exitY=0.94;exitDx=0;exitDy=0;exitPerimeter=0;strokeColor=#4A4A4A;" parent="1" source="QZXlK6RzlSNB_sEMwjah-236" edge="1">
          <mxGeometry width="50" height="50" relative="1" as="geometry">
            <mxPoint x="527.09" y="587.84" as="sourcePoint" />
            <mxPoint x="527.09" y="82.84" as="targetPoint" />
          </mxGeometry>
        </mxCell>
        <mxCell id="QZXlK6RzlSNB_sEMwjah-251" value="" style="endArrow=classic;html=1;rounded=0;strokeColor=#4A4A4A;" parent="1" edge="1">
          <mxGeometry width="50" height="50" relative="1" as="geometry">
            <mxPoint x="527.09" y="227.17" as="sourcePoint" />
            <mxPoint x="507.09" y="227.17" as="targetPoint" />
          </mxGeometry>
        </mxCell>
        <mxCell id="QZXlK6RzlSNB_sEMwjah-257" style="edgeStyle=orthogonalEdgeStyle;rounded=0;orthogonalLoop=1;jettySize=auto;html=1;exitX=0.995;exitY=0.806;exitDx=0;exitDy=0;dashed=1;dashPattern=1 4;exitPerimeter=0;" parent="1" edge="1">
          <mxGeometry relative="1" as="geometry">
            <mxPoint x="537.09" y="217.33" as="targetPoint" />
            <mxPoint x="507.09" y="217.81999999999996" as="sourcePoint" />
          </mxGeometry>
        </mxCell>
        <mxCell id="QZXlK6RzlSNB_sEMwjah-258" style="edgeStyle=orthogonalEdgeStyle;rounded=0;orthogonalLoop=1;jettySize=auto;html=1;exitX=1;exitY=0.5;exitDx=0;exitDy=0;" parent="1" edge="1">
          <mxGeometry relative="1" as="geometry">
            <mxPoint x="537.09" y="202.33" as="targetPoint" />
            <mxPoint x="507.38999999999993" y="202.52" as="sourcePoint" />
          </mxGeometry>
        </mxCell>
        <mxCell id="QZXlK6RzlSNB_sEMwjah-259" value="" style="endArrow=classic;html=1;rounded=0;exitX=1;exitY=0.2;exitDx=0;exitDy=0;exitPerimeter=0;" parent="1" edge="1">
          <mxGeometry width="50" height="50" relative="1" as="geometry">
            <mxPoint x="507.38999999999993" y="187.52" as="sourcePoint" />
            <mxPoint x="537.09" y="187.33" as="targetPoint" />
          </mxGeometry>
        </mxCell>
        <mxCell id="QZXlK6RzlSNB_sEMwjah-301" value="buffer2[0]" style="rounded=0;whiteSpace=wrap;html=1;" parent="1" vertex="1">
          <mxGeometry x="447.09" y="237.84" width="60" height="40" as="geometry" />
        </mxCell>
        <mxCell id="QZXlK6RzlSNB_sEMwjah-302" value="" style="endArrow=classic;html=1;rounded=0;strokeColor=#4A4A4A;" parent="1" edge="1">
          <mxGeometry width="50" height="50" relative="1" as="geometry">
            <mxPoint x="527.09" y="277.16999999999996" as="sourcePoint" />
            <mxPoint x="507.09" y="277.16999999999996" as="targetPoint" />
          </mxGeometry>
        </mxCell>
        <mxCell id="QZXlK6RzlSNB_sEMwjah-303" style="edgeStyle=orthogonalEdgeStyle;rounded=0;orthogonalLoop=1;jettySize=auto;html=1;exitX=0.995;exitY=0.806;exitDx=0;exitDy=0;dashed=1;dashPattern=1 4;exitPerimeter=0;" parent="1" edge="1">
          <mxGeometry relative="1" as="geometry">
            <mxPoint x="537.09" y="267.33000000000004" as="targetPoint" />
            <mxPoint x="507.09" y="267.81999999999994" as="sourcePoint" />
          </mxGeometry>
        </mxCell>
        <mxCell id="QZXlK6RzlSNB_sEMwjah-304" style="edgeStyle=orthogonalEdgeStyle;rounded=0;orthogonalLoop=1;jettySize=auto;html=1;exitX=1;exitY=0.5;exitDx=0;exitDy=0;" parent="1" edge="1">
          <mxGeometry relative="1" as="geometry">
            <mxPoint x="537.09" y="252.33" as="targetPoint" />
            <mxPoint x="507.38999999999993" y="252.52" as="sourcePoint" />
          </mxGeometry>
        </mxCell>
        <mxCell id="QZXlK6RzlSNB_sEMwjah-305" value="" style="endArrow=classic;html=1;rounded=0;exitX=1;exitY=0.2;exitDx=0;exitDy=0;exitPerimeter=0;" parent="1" edge="1">
          <mxGeometry width="50" height="50" relative="1" as="geometry">
            <mxPoint x="507.38999999999993" y="237.52" as="sourcePoint" />
            <mxPoint x="537.09" y="237.33" as="targetPoint" />
          </mxGeometry>
        </mxCell>
        <mxCell id="QZXlK6RzlSNB_sEMwjah-306" value="buffer2[0]" style="rounded=0;whiteSpace=wrap;html=1;" parent="1" vertex="1">
          <mxGeometry x="447.09" y="287.84000000000003" width="60" height="40" as="geometry" />
        </mxCell>
        <mxCell id="QZXlK6RzlSNB_sEMwjah-307" value="" style="endArrow=classic;html=1;rounded=0;strokeColor=#4A4A4A;" parent="1" edge="1">
          <mxGeometry width="50" height="50" relative="1" as="geometry">
            <mxPoint x="527.09" y="327.16999999999996" as="sourcePoint" />
            <mxPoint x="507.09" y="327.16999999999996" as="targetPoint" />
          </mxGeometry>
        </mxCell>
        <mxCell id="QZXlK6RzlSNB_sEMwjah-308" style="edgeStyle=orthogonalEdgeStyle;rounded=0;orthogonalLoop=1;jettySize=auto;html=1;exitX=0.995;exitY=0.806;exitDx=0;exitDy=0;dashed=1;dashPattern=1 4;exitPerimeter=0;" parent="1" edge="1">
          <mxGeometry relative="1" as="geometry">
            <mxPoint x="537.09" y="317.33000000000004" as="targetPoint" />
            <mxPoint x="507.09" y="317.81999999999994" as="sourcePoint" />
          </mxGeometry>
        </mxCell>
        <mxCell id="QZXlK6RzlSNB_sEMwjah-309" style="edgeStyle=orthogonalEdgeStyle;rounded=0;orthogonalLoop=1;jettySize=auto;html=1;exitX=1;exitY=0.5;exitDx=0;exitDy=0;" parent="1" edge="1">
          <mxGeometry relative="1" as="geometry">
            <mxPoint x="537.09" y="302.33000000000004" as="targetPoint" />
            <mxPoint x="507.38999999999993" y="302.52" as="sourcePoint" />
          </mxGeometry>
        </mxCell>
        <mxCell id="QZXlK6RzlSNB_sEMwjah-310" value="" style="endArrow=classic;html=1;rounded=0;exitX=1;exitY=0.2;exitDx=0;exitDy=0;exitPerimeter=0;" parent="1" edge="1">
          <mxGeometry width="50" height="50" relative="1" as="geometry">
            <mxPoint x="507.38999999999993" y="287.52" as="sourcePoint" />
            <mxPoint x="537.09" y="287.33000000000004" as="targetPoint" />
          </mxGeometry>
        </mxCell>
        <mxCell id="QZXlK6RzlSNB_sEMwjah-311" value="buffer2[0]" style="rounded=0;whiteSpace=wrap;html=1;" parent="1" vertex="1">
          <mxGeometry x="447.09" y="338.35" width="60" height="40" as="geometry" />
        </mxCell>
        <mxCell id="QZXlK6RzlSNB_sEMwjah-312" value="" style="endArrow=classic;html=1;rounded=0;strokeColor=#4A4A4A;" parent="1" edge="1">
          <mxGeometry width="50" height="50" relative="1" as="geometry">
            <mxPoint x="527.09" y="377.67999999999995" as="sourcePoint" />
            <mxPoint x="507.09" y="377.67999999999995" as="targetPoint" />
          </mxGeometry>
        </mxCell>
        <mxCell id="QZXlK6RzlSNB_sEMwjah-313" style="edgeStyle=orthogonalEdgeStyle;rounded=0;orthogonalLoop=1;jettySize=auto;html=1;exitX=0.995;exitY=0.806;exitDx=0;exitDy=0;dashed=1;dashPattern=1 4;exitPerimeter=0;" parent="1" edge="1">
          <mxGeometry relative="1" as="geometry">
            <mxPoint x="537.09" y="367.84000000000003" as="targetPoint" />
            <mxPoint x="507.09" y="368.3299999999999" as="sourcePoint" />
          </mxGeometry>
        </mxCell>
        <mxCell id="QZXlK6RzlSNB_sEMwjah-314" style="edgeStyle=orthogonalEdgeStyle;rounded=0;orthogonalLoop=1;jettySize=auto;html=1;exitX=1;exitY=0.5;exitDx=0;exitDy=0;" parent="1" edge="1">
          <mxGeometry relative="1" as="geometry">
            <mxPoint x="537.09" y="352.84000000000003" as="targetPoint" />
            <mxPoint x="507.38999999999993" y="353.03" as="sourcePoint" />
          </mxGeometry>
        </mxCell>
        <mxCell id="QZXlK6RzlSNB_sEMwjah-315" value="" style="endArrow=classic;html=1;rounded=0;exitX=1;exitY=0.2;exitDx=0;exitDy=0;exitPerimeter=0;" parent="1" edge="1">
          <mxGeometry width="50" height="50" relative="1" as="geometry">
            <mxPoint x="507.38999999999993" y="338.03" as="sourcePoint" />
            <mxPoint x="537.09" y="337.84000000000003" as="targetPoint" />
          </mxGeometry>
        </mxCell>
        <mxCell id="QZXlK6RzlSNB_sEMwjah-316" value="buffer2[0]" style="rounded=0;whiteSpace=wrap;html=1;" parent="1" vertex="1">
          <mxGeometry x="447.09" y="387.84000000000003" width="60" height="40" as="geometry" />
        </mxCell>
        <mxCell id="QZXlK6RzlSNB_sEMwjah-317" value="" style="endArrow=classic;html=1;rounded=0;strokeColor=#4A4A4A;" parent="1" edge="1">
          <mxGeometry width="50" height="50" relative="1" as="geometry">
            <mxPoint x="527.09" y="427.16999999999996" as="sourcePoint" />
            <mxPoint x="507.09" y="427.16999999999996" as="targetPoint" />
          </mxGeometry>
        </mxCell>
        <mxCell id="QZXlK6RzlSNB_sEMwjah-318" style="edgeStyle=orthogonalEdgeStyle;rounded=0;orthogonalLoop=1;jettySize=auto;html=1;exitX=0.995;exitY=0.806;exitDx=0;exitDy=0;dashed=1;dashPattern=1 4;exitPerimeter=0;" parent="1" edge="1">
          <mxGeometry relative="1" as="geometry">
            <mxPoint x="537.09" y="417.33000000000004" as="targetPoint" />
            <mxPoint x="507.09" y="417.81999999999994" as="sourcePoint" />
          </mxGeometry>
        </mxCell>
        <mxCell id="QZXlK6RzlSNB_sEMwjah-319" style="edgeStyle=orthogonalEdgeStyle;rounded=0;orthogonalLoop=1;jettySize=auto;html=1;exitX=1;exitY=0.5;exitDx=0;exitDy=0;" parent="1" edge="1">
          <mxGeometry relative="1" as="geometry">
            <mxPoint x="537.09" y="402.33000000000004" as="targetPoint" />
            <mxPoint x="507.38999999999993" y="402.52" as="sourcePoint" />
          </mxGeometry>
        </mxCell>
        <mxCell id="QZXlK6RzlSNB_sEMwjah-320" value="" style="endArrow=classic;html=1;rounded=0;exitX=1;exitY=0.2;exitDx=0;exitDy=0;exitPerimeter=0;" parent="1" edge="1">
          <mxGeometry width="50" height="50" relative="1" as="geometry">
            <mxPoint x="507.38999999999993" y="387.52" as="sourcePoint" />
            <mxPoint x="537.09" y="387.33000000000004" as="targetPoint" />
          </mxGeometry>
        </mxCell>
        <mxCell id="QZXlK6RzlSNB_sEMwjah-326" value="buffer2[23]" style="rounded=0;whiteSpace=wrap;html=1;" parent="1" vertex="1">
          <mxGeometry x="447.09" y="487.84000000000003" width="60" height="40" as="geometry" />
        </mxCell>
        <mxCell id="QZXlK6RzlSNB_sEMwjah-327" value="" style="endArrow=classic;html=1;rounded=0;strokeColor=#545454;" parent="1" edge="1">
          <mxGeometry width="50" height="50" relative="1" as="geometry">
            <mxPoint x="527.09" y="527.17" as="sourcePoint" />
            <mxPoint x="507.09" y="527.17" as="targetPoint" />
          </mxGeometry>
        </mxCell>
        <mxCell id="QZXlK6RzlSNB_sEMwjah-328" style="edgeStyle=orthogonalEdgeStyle;rounded=0;orthogonalLoop=1;jettySize=auto;html=1;exitX=0.995;exitY=0.806;exitDx=0;exitDy=0;dashed=1;dashPattern=1 4;exitPerimeter=0;" parent="1" edge="1">
          <mxGeometry relative="1" as="geometry">
            <mxPoint x="537.09" y="517.33" as="targetPoint" />
            <mxPoint x="507.09" y="517.8199999999999" as="sourcePoint" />
          </mxGeometry>
        </mxCell>
        <mxCell id="QZXlK6RzlSNB_sEMwjah-329" style="edgeStyle=orthogonalEdgeStyle;rounded=0;orthogonalLoop=1;jettySize=auto;html=1;exitX=1;exitY=0.5;exitDx=0;exitDy=0;" parent="1" edge="1">
          <mxGeometry relative="1" as="geometry">
            <mxPoint x="537.09" y="502.33000000000004" as="targetPoint" />
            <mxPoint x="507.38999999999993" y="502.52" as="sourcePoint" />
          </mxGeometry>
        </mxCell>
        <mxCell id="QZXlK6RzlSNB_sEMwjah-331" style="edgeStyle=orthogonalEdgeStyle;rounded=0;orthogonalLoop=1;jettySize=auto;html=1;dashed=1;dashPattern=1 4;" parent="1" edge="1">
          <mxGeometry relative="1" as="geometry">
            <mxPoint x="637.09" y="272.84000000000003" as="targetPoint" />
            <mxPoint x="577.09" y="272.84000000000003" as="sourcePoint" />
          </mxGeometry>
        </mxCell>
        <mxCell id="QZXlK6RzlSNB_sEMwjah-332" value="" style="endArrow=classic;html=1;rounded=0;exitX=1;exitY=0.2;exitDx=0;exitDy=0;exitPerimeter=0;" parent="1" edge="1">
          <mxGeometry width="50" height="50" relative="1" as="geometry">
            <mxPoint x="617.09" y="257.6" as="sourcePoint" />
            <mxPoint x="637.09" y="257.84000000000003" as="targetPoint" />
          </mxGeometry>
        </mxCell>
        <mxCell id="QZXlK6RzlSNB_sEMwjah-334" value="result[1]" style="rounded=0;whiteSpace=wrap;html=1;" parent="1" vertex="1">
          <mxGeometry x="637.09" y="242.84" width="50" height="40" as="geometry" />
        </mxCell>
        <mxCell id="QZXlK6RzlSNB_sEMwjah-339" style="edgeStyle=orthogonalEdgeStyle;rounded=0;orthogonalLoop=1;jettySize=auto;html=1;dashed=1;dashPattern=1 4;" parent="1" edge="1">
          <mxGeometry relative="1" as="geometry">
            <mxPoint x="637.09" y="322.84000000000003" as="targetPoint" />
            <mxPoint x="577.09" y="322.84000000000003" as="sourcePoint" />
          </mxGeometry>
        </mxCell>
        <mxCell id="QZXlK6RzlSNB_sEMwjah-340" value="" style="endArrow=classic;html=1;rounded=0;exitX=1;exitY=0.2;exitDx=0;exitDy=0;exitPerimeter=0;" parent="1" edge="1">
          <mxGeometry width="50" height="50" relative="1" as="geometry">
            <mxPoint x="617.09" y="307.6" as="sourcePoint" />
            <mxPoint x="637.09" y="307.84000000000003" as="targetPoint" />
          </mxGeometry>
        </mxCell>
        <mxCell id="QZXlK6RzlSNB_sEMwjah-341" value="result[2]" style="rounded=0;whiteSpace=wrap;html=1;" parent="1" vertex="1">
          <mxGeometry x="637.09" y="292.84000000000003" width="50" height="40" as="geometry" />
        </mxCell>
        <mxCell id="QZXlK6RzlSNB_sEMwjah-342" style="edgeStyle=orthogonalEdgeStyle;rounded=0;orthogonalLoop=1;jettySize=auto;html=1;dashed=1;dashPattern=1 4;" parent="1" edge="1">
          <mxGeometry relative="1" as="geometry">
            <mxPoint x="637.09" y="372.84000000000003" as="targetPoint" />
            <mxPoint x="577.09" y="372.84000000000003" as="sourcePoint" />
          </mxGeometry>
        </mxCell>
        <mxCell id="QZXlK6RzlSNB_sEMwjah-343" value="" style="endArrow=classic;html=1;rounded=0;exitX=1;exitY=0.2;exitDx=0;exitDy=0;exitPerimeter=0;" parent="1" edge="1">
          <mxGeometry width="50" height="50" relative="1" as="geometry">
            <mxPoint x="617.09" y="357.6" as="sourcePoint" />
            <mxPoint x="637.09" y="357.84000000000003" as="targetPoint" />
          </mxGeometry>
        </mxCell>
        <mxCell id="QZXlK6RzlSNB_sEMwjah-344" value="result[3]" style="rounded=0;whiteSpace=wrap;html=1;" parent="1" vertex="1">
          <mxGeometry x="637.09" y="342.84000000000003" width="50" height="40" as="geometry" />
        </mxCell>
        <mxCell id="QZXlK6RzlSNB_sEMwjah-345" style="edgeStyle=orthogonalEdgeStyle;rounded=0;orthogonalLoop=1;jettySize=auto;html=1;dashed=1;dashPattern=1 4;" parent="1" edge="1">
          <mxGeometry relative="1" as="geometry">
            <mxPoint x="637.09" y="422.84000000000003" as="targetPoint" />
            <mxPoint x="577.09" y="422.84000000000003" as="sourcePoint" />
          </mxGeometry>
        </mxCell>
        <mxCell id="QZXlK6RzlSNB_sEMwjah-346" value="" style="endArrow=classic;html=1;rounded=0;exitX=1;exitY=0.2;exitDx=0;exitDy=0;exitPerimeter=0;" parent="1" edge="1">
          <mxGeometry width="50" height="50" relative="1" as="geometry">
            <mxPoint x="617.09" y="407.6" as="sourcePoint" />
            <mxPoint x="637.09" y="407.84000000000003" as="targetPoint" />
          </mxGeometry>
        </mxCell>
        <mxCell id="QZXlK6RzlSNB_sEMwjah-347" value="result[4]" style="rounded=0;whiteSpace=wrap;html=1;" parent="1" vertex="1">
          <mxGeometry x="637.09" y="392.84000000000003" width="50" height="40" as="geometry" />
        </mxCell>
        <mxCell id="QZXlK6RzlSNB_sEMwjah-351" style="edgeStyle=orthogonalEdgeStyle;rounded=0;orthogonalLoop=1;jettySize=auto;html=1;dashed=1;dashPattern=1 4;" parent="1" edge="1">
          <mxGeometry relative="1" as="geometry">
            <mxPoint x="637.09" y="522.84" as="targetPoint" />
            <mxPoint x="577.09" y="522.84" as="sourcePoint" />
          </mxGeometry>
        </mxCell>
        <mxCell id="QZXlK6RzlSNB_sEMwjah-352" value="" style="endArrow=classic;html=1;rounded=0;exitX=1;exitY=0.2;exitDx=0;exitDy=0;exitPerimeter=0;" parent="1" edge="1">
          <mxGeometry width="50" height="50" relative="1" as="geometry">
            <mxPoint x="617.09" y="507.6" as="sourcePoint" />
            <mxPoint x="637.09" y="507.84000000000003" as="targetPoint" />
          </mxGeometry>
        </mxCell>
        <mxCell id="QZXlK6RzlSNB_sEMwjah-353" value="result[23]" style="rounded=0;whiteSpace=wrap;html=1;" parent="1" vertex="1">
          <mxGeometry x="637.09" y="492.84000000000003" width="50" height="40" as="geometry" />
        </mxCell>
        <mxCell id="QZXlK6RzlSNB_sEMwjah-357" value="" style="endArrow=none;html=1;rounded=0;strokeColor=#4A4A4A;" parent="1" edge="1">
          <mxGeometry width="50" height="50" relative="1" as="geometry">
            <mxPoint x="697.09" y="507.84000000000003" as="sourcePoint" />
            <mxPoint x="697.09" y="82.84" as="targetPoint" />
          </mxGeometry>
        </mxCell>
        <mxCell id="QZXlK6RzlSNB_sEMwjah-359" value="" style="endArrow=classic;html=1;rounded=0;strokeColor=#4A4A4A;" parent="1" edge="1">
          <mxGeometry width="50" height="50" relative="1" as="geometry">
            <mxPoint x="697.09" y="192.84" as="sourcePoint" />
            <mxPoint x="687.09" y="192.61" as="targetPoint" />
          </mxGeometry>
        </mxCell>
        <mxCell id="QZXlK6RzlSNB_sEMwjah-363" value="+" style="edgeStyle=orthogonalEdgeStyle;rounded=0;orthogonalLoop=1;jettySize=auto;html=1;exitX=1;exitY=0.5;exitDx=0;exitDy=0;" parent="1" edge="1">
          <mxGeometry x="1" y="-10" relative="1" as="geometry">
            <mxPoint x="707.09" y="267.37" as="targetPoint" />
            <mxPoint x="687.09" y="267.37" as="sourcePoint" />
            <mxPoint x="10" y="-10" as="offset" />
          </mxGeometry>
        </mxCell>
        <mxCell id="QZXlK6RzlSNB_sEMwjah-364" value="" style="endArrow=classic;html=1;rounded=0;strokeColor=#4A4A4A;" parent="1" edge="1">
          <mxGeometry width="50" height="50" relative="1" as="geometry">
            <mxPoint x="697.09" y="252.37" as="sourcePoint" />
            <mxPoint x="687.09" y="252.14000000000001" as="targetPoint" />
          </mxGeometry>
        </mxCell>
        <mxCell id="QZXlK6RzlSNB_sEMwjah-365" value="+" style="edgeStyle=orthogonalEdgeStyle;rounded=0;orthogonalLoop=1;jettySize=auto;html=1;exitX=1;exitY=0.5;exitDx=0;exitDy=0;" parent="1" edge="1">
          <mxGeometry x="1" y="-10" relative="1" as="geometry">
            <mxPoint x="707.09" y="317.37" as="targetPoint" />
            <mxPoint x="687.09" y="317.37" as="sourcePoint" />
            <mxPoint x="10" y="-10" as="offset" />
          </mxGeometry>
        </mxCell>
        <mxCell id="QZXlK6RzlSNB_sEMwjah-366" value="" style="endArrow=classic;html=1;rounded=0;strokeColor=#4A4A4A;" parent="1" edge="1">
          <mxGeometry width="50" height="50" relative="1" as="geometry">
            <mxPoint x="697.09" y="302.37" as="sourcePoint" />
            <mxPoint x="687.09" y="302.14" as="targetPoint" />
          </mxGeometry>
        </mxCell>
        <mxCell id="QZXlK6RzlSNB_sEMwjah-367" value="+" style="edgeStyle=orthogonalEdgeStyle;rounded=0;orthogonalLoop=1;jettySize=auto;html=1;exitX=1;exitY=0.5;exitDx=0;exitDy=0;" parent="1" edge="1">
          <mxGeometry x="1" y="-10" relative="1" as="geometry">
            <mxPoint x="707.09" y="367.37" as="targetPoint" />
            <mxPoint x="687.09" y="367.37" as="sourcePoint" />
            <mxPoint x="10" y="-10" as="offset" />
          </mxGeometry>
        </mxCell>
        <mxCell id="QZXlK6RzlSNB_sEMwjah-368" value="" style="endArrow=classic;html=1;rounded=0;strokeColor=#4A4A4A;" parent="1" edge="1">
          <mxGeometry width="50" height="50" relative="1" as="geometry">
            <mxPoint x="697.09" y="352.37" as="sourcePoint" />
            <mxPoint x="687.09" y="352.14" as="targetPoint" />
          </mxGeometry>
        </mxCell>
        <mxCell id="QZXlK6RzlSNB_sEMwjah-369" value="+" style="edgeStyle=orthogonalEdgeStyle;rounded=0;orthogonalLoop=1;jettySize=auto;html=1;exitX=1;exitY=0.5;exitDx=0;exitDy=0;" parent="1" edge="1">
          <mxGeometry x="1" y="-10" relative="1" as="geometry">
            <mxPoint x="707.09" y="417.37" as="targetPoint" />
            <mxPoint x="687.09" y="417.37" as="sourcePoint" />
            <mxPoint x="10" y="-10" as="offset" />
          </mxGeometry>
        </mxCell>
        <mxCell id="QZXlK6RzlSNB_sEMwjah-370" value="" style="endArrow=classic;html=1;rounded=0;strokeColor=#4A4A4A;" parent="1" edge="1">
          <mxGeometry width="50" height="50" relative="1" as="geometry">
            <mxPoint x="697.09" y="402.37" as="sourcePoint" />
            <mxPoint x="687.09" y="402.14" as="targetPoint" />
          </mxGeometry>
        </mxCell>
        <mxCell id="QZXlK6RzlSNB_sEMwjah-373" value="+" style="edgeStyle=orthogonalEdgeStyle;rounded=0;orthogonalLoop=1;jettySize=auto;html=1;exitX=1;exitY=0.5;exitDx=0;exitDy=0;" parent="1" edge="1">
          <mxGeometry x="1" y="10" relative="1" as="geometry">
            <mxPoint x="707.09" y="520.1800000000001" as="targetPoint" />
            <mxPoint x="687.09" y="520.1800000000001" as="sourcePoint" />
            <mxPoint x="10" y="10" as="offset" />
          </mxGeometry>
        </mxCell>
        <mxCell id="QZXlK6RzlSNB_sEMwjah-374" value="" style="endArrow=classic;html=1;rounded=0;strokeColor=#575757;" parent="1" edge="1">
          <mxGeometry width="50" height="50" relative="1" as="geometry">
            <mxPoint x="697.09" y="505.18000000000006" as="sourcePoint" />
            <mxPoint x="687.09" y="504.95000000000005" as="targetPoint" />
          </mxGeometry>
        </mxCell>
        <mxCell id="QZXlK6RzlSNB_sEMwjah-379" value="" style="endArrow=none;html=1;rounded=0;strokeColor=#4A4A4A;" parent="1" edge="1">
          <mxGeometry width="50" height="50" relative="1" as="geometry">
            <mxPoint x="757.09" y="487.84000000000003" as="sourcePoint" />
            <mxPoint x="757.09" y="82.84" as="targetPoint" />
          </mxGeometry>
        </mxCell>
        <mxCell id="QZXlK6RzlSNB_sEMwjah-380" value="" style="endArrow=classic;html=1;rounded=0;strokeColor=#4A4A4A;" parent="1" edge="1">
          <mxGeometry width="50" height="50" relative="1" as="geometry">
            <mxPoint x="757.09" y="197.84" as="sourcePoint" />
            <mxPoint x="747.09" y="197.84" as="targetPoint" />
          </mxGeometry>
        </mxCell>
        <mxCell id="QZXlK6RzlSNB_sEMwjah-386" value="+" style="endArrow=classic;html=1;rounded=0;" parent="1" edge="1">
          <mxGeometry x="1" y="10" width="50" height="50" relative="1" as="geometry">
            <mxPoint x="747.09" y="282.55" as="sourcePoint" />
            <mxPoint x="767.09" y="282.84000000000003" as="targetPoint" />
            <mxPoint x="10" y="10" as="offset" />
          </mxGeometry>
        </mxCell>
        <mxCell id="QZXlK6RzlSNB_sEMwjah-389" value="+" style="endArrow=classic;html=1;rounded=0;" parent="1" edge="1">
          <mxGeometry x="1" y="10" width="50" height="50" relative="1" as="geometry">
            <mxPoint x="747.09" y="417.84000000000003" as="sourcePoint" />
            <mxPoint x="767.09" y="417.84000000000003" as="targetPoint" />
            <mxPoint x="10" y="10" as="offset" />
          </mxGeometry>
        </mxCell>
        <mxCell id="QZXlK6RzlSNB_sEMwjah-390" value="..." style="text;html=1;align=center;verticalAlign=middle;whiteSpace=wrap;rounded=0;" parent="1" vertex="1">
          <mxGeometry x="447.09" y="437.84000000000003" width="60" height="30" as="geometry" />
        </mxCell>
        <mxCell id="QZXlK6RzlSNB_sEMwjah-392" value="+" style="endArrow=classic;html=1;rounded=0;" parent="1" edge="1">
          <mxGeometry x="1" y="10" width="50" height="50" relative="1" as="geometry">
            <mxPoint x="747.09" y="507.16999999999996" as="sourcePoint" />
            <mxPoint x="767.09" y="507.84000000000003" as="targetPoint" />
            <mxPoint x="10" y="10" as="offset" />
          </mxGeometry>
        </mxCell>
        <mxCell id="QZXlK6RzlSNB_sEMwjah-395" value="..." style="text;html=1;align=center;verticalAlign=middle;whiteSpace=wrap;rounded=0;" parent="1" vertex="1">
          <mxGeometry x="327.09" y="437.84000000000003" width="60" height="30" as="geometry" />
        </mxCell>
        <mxCell id="QZXlK6RzlSNB_sEMwjah-396" value="..." style="text;html=1;align=center;verticalAlign=middle;whiteSpace=wrap;rounded=0;" parent="1" vertex="1">
          <mxGeometry x="547.09" y="437.84000000000003" width="60" height="30" as="geometry" />
        </mxCell>
        <mxCell id="QZXlK6RzlSNB_sEMwjah-397" value="..." style="text;html=1;align=center;verticalAlign=middle;whiteSpace=wrap;rounded=0;" parent="1" vertex="1">
          <mxGeometry x="627.09" y="437.84000000000003" width="60" height="30" as="geometry" />
        </mxCell>
        <mxCell id="QZXlK6RzlSNB_sEMwjah-398" value="..." style="text;html=1;align=center;verticalAlign=middle;whiteSpace=wrap;rounded=0;" parent="1" vertex="1">
          <mxGeometry x="697.09" y="437.84000000000003" width="60" height="30" as="geometry" />
        </mxCell>
        <mxCell id="QZXlK6RzlSNB_sEMwjah-399" value="..." style="text;html=1;align=center;verticalAlign=middle;whiteSpace=wrap;rounded=0;" parent="1" vertex="1">
          <mxGeometry x="757.09" y="437.84000000000003" width="60" height="30" as="geometry" />
        </mxCell>
        <mxCell id="QZXlK6RzlSNB_sEMwjah-400" value="..." style="text;html=1;align=center;verticalAlign=middle;whiteSpace=wrap;rounded=0;" parent="1" vertex="1">
          <mxGeometry x="177.09" y="437.84000000000003" width="60" height="30" as="geometry" />
        </mxCell>
        <mxCell id="QZXlK6RzlSNB_sEMwjah-401" value="..." style="text;html=1;align=center;verticalAlign=middle;whiteSpace=wrap;rounded=0;" parent="1" vertex="1">
          <mxGeometry x="87.09" y="432.84000000000003" width="60" height="30" as="geometry" />
        </mxCell>
        <mxCell id="QZXlK6RzlSNB_sEMwjah-402" value="sum" style="rounded=0;whiteSpace=wrap;html=1;" parent="1" vertex="1">
          <mxGeometry x="827.09" y="387.84000000000003" width="30" height="110" as="geometry" />
        </mxCell>
        <mxCell id="QZXlK6RzlSNB_sEMwjah-404" value="+" style="endArrow=classic;html=1;rounded=0;" parent="1" edge="1">
          <mxGeometry x="1" y="10" width="50" height="50" relative="1" as="geometry">
            <mxPoint x="807.09" y="417.84000000000003" as="sourcePoint" />
            <mxPoint x="827.09" y="418.13" as="targetPoint" />
            <mxPoint x="10" y="10" as="offset" />
          </mxGeometry>
        </mxCell>
        <mxCell id="QZXlK6RzlSNB_sEMwjah-405" value="+" style="endArrow=classic;html=1;rounded=0;" parent="1" edge="1">
          <mxGeometry x="1" y="10" width="50" height="50" relative="1" as="geometry">
            <mxPoint x="807.09" y="487.84000000000003" as="sourcePoint" />
            <mxPoint x="827.09" y="488.51" as="targetPoint" />
            <mxPoint x="10" y="10" as="offset" />
          </mxGeometry>
        </mxCell>
        <mxCell id="QZXlK6RzlSNB_sEMwjah-406" value="" style="endArrow=none;html=1;rounded=0;strokeColor=#4A4A4A;" parent="1" edge="1">
          <mxGeometry width="50" height="50" relative="1" as="geometry">
            <mxPoint x="817.09" y="477.84000000000003" as="sourcePoint" />
            <mxPoint x="817.09" y="82.84" as="targetPoint" />
          </mxGeometry>
        </mxCell>
        <mxCell id="QZXlK6RzlSNB_sEMwjah-408" value="" style="endArrow=classic;html=1;rounded=0;entryX=1.001;entryY=0.077;entryDx=0;entryDy=0;entryPerimeter=0;strokeColor=#4A4A4A;" parent="1" target="QZXlK6RzlSNB_sEMwjah-394" edge="1">
          <mxGeometry width="50" height="50" relative="1" as="geometry">
            <mxPoint x="817.09" y="285.84000000000003" as="sourcePoint" />
            <mxPoint x="757.09" y="207.84" as="targetPoint" />
          </mxGeometry>
        </mxCell>
        <mxCell id="QZXlK6RzlSNB_sEMwjah-409" value="" style="endArrow=none;html=1;rounded=0;strokeColor=#4A4A4A;" parent="1" edge="1">
          <mxGeometry width="50" height="50" relative="1" as="geometry">
            <mxPoint x="867.09" y="397.84000000000003" as="sourcePoint" />
            <mxPoint x="867.09" y="82.84" as="targetPoint" />
          </mxGeometry>
        </mxCell>
        <mxCell id="QZXlK6RzlSNB_sEMwjah-410" value="" style="endArrow=classic;html=1;rounded=0;entryX=0.981;entryY=0.088;entryDx=0;entryDy=0;entryPerimeter=0;strokeColor=#575757;" parent="1" target="QZXlK6RzlSNB_sEMwjah-402" edge="1">
          <mxGeometry width="50" height="50" relative="1" as="geometry">
            <mxPoint x="867.09" y="397.84000000000003" as="sourcePoint" />
            <mxPoint x="817.09" y="295.84000000000003" as="targetPoint" />
          </mxGeometry>
        </mxCell>
        <mxCell id="QW86rbhPurHiQnkh5BR2-57" style="edgeStyle=orthogonalEdgeStyle;rounded=0;orthogonalLoop=1;jettySize=auto;html=1;exitX=1;exitY=0.5;exitDx=0;exitDy=0;entryX=0.5;entryY=0;entryDx=0;entryDy=0;" parent="1" source="QW86rbhPurHiQnkh5BR2-1" target="QW86rbhPurHiQnkh5BR2-52" edge="1">
          <mxGeometry relative="1" as="geometry">
            <Array as="points">
              <mxPoint x="957.09" y="434.84000000000003" />
              <mxPoint x="957.09" y="164.84" />
            </Array>
          </mxGeometry>
        </mxCell>
        <mxCell id="QW86rbhPurHiQnkh5BR2-1" value="buffer" style="rounded=0;whiteSpace=wrap;html=1;" parent="1" vertex="1">
          <mxGeometry x="887.09" y="387.84000000000003" width="50" height="95" as="geometry" />
        </mxCell>
        <mxCell id="QW86rbhPurHiQnkh5BR2-3" value="" style="endArrow=none;html=1;rounded=0;strokeColor=#4A4A4A;" parent="1" edge="1">
          <mxGeometry width="50" height="50" relative="1" as="geometry">
            <mxPoint x="947.09" y="397.84000000000003" as="sourcePoint" />
            <mxPoint x="947.09" y="82.84" as="targetPoint" />
          </mxGeometry>
        </mxCell>
        <mxCell id="QW86rbhPurHiQnkh5BR2-4" value="" style="endArrow=classic;html=1;rounded=0;entryX=0.989;entryY=0.121;entryDx=0;entryDy=0;entryPerimeter=0;strokeColor=#575757;" parent="1" edge="1">
          <mxGeometry width="50" height="50" relative="1" as="geometry">
            <mxPoint x="947.09" y="392.84000000000003" as="sourcePoint" />
            <mxPoint x="937.09" y="393.84000000000003" as="targetPoint" />
          </mxGeometry>
        </mxCell>
        <mxCell id="QW86rbhPurHiQnkh5BR2-5" value="" style="endArrow=classic;html=1;rounded=0;strokeColor=#424242;" parent="1" edge="1">
          <mxGeometry width="50" height="50" relative="1" as="geometry">
            <mxPoint x="627.09" y="492.84000000000003" as="sourcePoint" />
            <mxPoint x="577.09" y="492.84000000000003" as="targetPoint" />
          </mxGeometry>
        </mxCell>
        <mxCell id="QW86rbhPurHiQnkh5BR2-6" value="" style="endArrow=classic;html=1;rounded=0;strokeColor=#525252;" parent="1" edge="1">
          <mxGeometry width="50" height="50" relative="1" as="geometry">
            <mxPoint x="757.09" y="392.6" as="sourcePoint" />
            <mxPoint x="747.09" y="392.6" as="targetPoint" />
          </mxGeometry>
        </mxCell>
        <mxCell id="QW86rbhPurHiQnkh5BR2-9" value="" style="endArrow=classic;html=1;rounded=0;strokeColor=#575757;" parent="1" edge="1">
          <mxGeometry width="50" height="50" relative="1" as="geometry">
            <mxPoint x="757.09" y="482.84000000000003" as="sourcePoint" />
            <mxPoint x="747.09" y="482.84000000000003" as="targetPoint" />
          </mxGeometry>
        </mxCell>
        <mxCell id="QW86rbhPurHiQnkh5BR2-11" style="edgeStyle=orthogonalEdgeStyle;rounded=0;orthogonalLoop=1;jettySize=auto;html=1;exitX=1;exitY=0.5;exitDx=0;exitDy=0;entryX=0;entryY=0.579;entryDx=0;entryDy=0;entryPerimeter=0;" parent="1" source="QZXlK6RzlSNB_sEMwjah-402" target="QW86rbhPurHiQnkh5BR2-1" edge="1">
          <mxGeometry relative="1" as="geometry" />
        </mxCell>
        <mxCell id="QW86rbhPurHiQnkh5BR2-12" value="" style="endArrow=classic;html=1;rounded=0;entryX=1.001;entryY=0.077;entryDx=0;entryDy=0;entryPerimeter=0;strokeColor=#575757;" parent="1" edge="1">
          <mxGeometry width="50" height="50" relative="1" as="geometry">
            <mxPoint x="817.09" y="477.45000000000005" as="sourcePoint" />
            <mxPoint x="807.09" y="477.45000000000005" as="targetPoint" />
          </mxGeometry>
        </mxCell>
        <mxCell id="QW86rbhPurHiQnkh5BR2-13" value="start" style="edgeStyle=orthogonalEdgeStyle;rounded=0;orthogonalLoop=1;jettySize=auto;html=1;exitX=1;exitY=0.5;exitDx=0;exitDy=0;entryX=0;entryY=0.5;entryDx=0;entryDy=0;dashed=1;dashPattern=1 4;" parent="1" edge="1">
          <mxGeometry x="0.25" y="15" relative="1" as="geometry">
            <mxPoint x="7.09" y="137.65" as="sourcePoint" />
            <mxPoint x="87.09" y="137.65" as="targetPoint" />
            <mxPoint as="offset" />
          </mxGeometry>
        </mxCell>
        <mxCell id="QW86rbhPurHiQnkh5BR2-17" style="edgeStyle=orthogonalEdgeStyle;rounded=0;orthogonalLoop=1;jettySize=auto;html=1;exitX=1;exitY=0.5;exitDx=0;exitDy=0;entryX=0;entryY=0.5;entryDx=0;entryDy=0;dashed=1;dashPattern=1 4;" parent="1" source="QW86rbhPurHiQnkh5BR2-14" target="QW86rbhPurHiQnkh5BR2-15" edge="1">
          <mxGeometry relative="1" as="geometry" />
        </mxCell>
        <mxCell id="QW86rbhPurHiQnkh5BR2-14" value="start" style="rounded=0;whiteSpace=wrap;html=1;" parent="1" vertex="1">
          <mxGeometry x="87.09" y="122.84" width="60" height="30" as="geometry" />
        </mxCell>
        <mxCell id="QW86rbhPurHiQnkh5BR2-15" value="start" style="rounded=0;whiteSpace=wrap;html=1;" parent="1" vertex="1">
          <mxGeometry x="177.09" y="122.84" width="60" height="30" as="geometry" />
        </mxCell>
        <mxCell id="QW86rbhPurHiQnkh5BR2-18" value="" style="endArrow=classic;html=1;rounded=0;entryX=1;entryY=0.25;entryDx=0;entryDy=0;strokeColor=#4A4A4A;" parent="1" target="QW86rbhPurHiQnkh5BR2-15" edge="1">
          <mxGeometry width="50" height="50" relative="1" as="geometry">
            <mxPoint x="257.09" y="130.84" as="sourcePoint" />
            <mxPoint x="257.09" y="222.84" as="targetPoint" />
          </mxGeometry>
        </mxCell>
        <mxCell id="QW86rbhPurHiQnkh5BR2-19" style="edgeStyle=orthogonalEdgeStyle;rounded=0;orthogonalLoop=1;jettySize=auto;html=1;exitX=1;exitY=0.5;exitDx=0;exitDy=0;entryX=0;entryY=0.5;entryDx=0;entryDy=0;dashed=1;dashPattern=1 4;" parent="1" target="QW86rbhPurHiQnkh5BR2-20" edge="1">
          <mxGeometry relative="1" as="geometry">
            <mxPoint x="237.09" y="137.65" as="sourcePoint" />
            <mxPoint x="267.09" y="137.65" as="targetPoint" />
          </mxGeometry>
        </mxCell>
        <mxCell id="QW86rbhPurHiQnkh5BR2-23" style="edgeStyle=orthogonalEdgeStyle;rounded=0;orthogonalLoop=1;jettySize=auto;html=1;exitX=1;exitY=0.5;exitDx=0;exitDy=0;entryX=0;entryY=0.5;entryDx=0;entryDy=0;dashed=1;dashPattern=1 4;" parent="1" source="QW86rbhPurHiQnkh5BR2-20" target="QW86rbhPurHiQnkh5BR2-22" edge="1">
          <mxGeometry relative="1" as="geometry" />
        </mxCell>
        <mxCell id="QW86rbhPurHiQnkh5BR2-20" value="start" style="rounded=0;whiteSpace=wrap;html=1;" parent="1" vertex="1">
          <mxGeometry x="331.09" y="122.84" width="60" height="30" as="geometry" />
        </mxCell>
        <mxCell id="QW86rbhPurHiQnkh5BR2-21" value="" style="endArrow=classic;html=1;rounded=0;entryX=0.982;entryY=0.177;entryDx=0;entryDy=0;entryPerimeter=0;strokeColor=#4A4A4A;" parent="1" edge="1">
          <mxGeometry width="50" height="50" relative="1" as="geometry">
            <mxPoint x="428.16999999999996" y="122.51" as="sourcePoint" />
            <mxPoint x="391.09000000000003" y="122.82000000000001" as="targetPoint" />
          </mxGeometry>
        </mxCell>
        <mxCell id="QW86rbhPurHiQnkh5BR2-25" style="edgeStyle=orthogonalEdgeStyle;rounded=0;orthogonalLoop=1;jettySize=auto;html=1;exitX=1;exitY=0.5;exitDx=0;exitDy=0;dashed=1;dashPattern=1 4;" parent="1" source="QW86rbhPurHiQnkh5BR2-22" target="QW86rbhPurHiQnkh5BR2-24" edge="1">
          <mxGeometry relative="1" as="geometry" />
        </mxCell>
        <mxCell id="QW86rbhPurHiQnkh5BR2-22" value="start" style="rounded=0;whiteSpace=wrap;html=1;" parent="1" vertex="1">
          <mxGeometry x="447.09" y="122.84" width="60" height="30" as="geometry" />
        </mxCell>
        <mxCell id="QW86rbhPurHiQnkh5BR2-24" value="start" style="rounded=0;whiteSpace=wrap;html=1;" parent="1" vertex="1">
          <mxGeometry x="547.09" y="122.84" width="60" height="30" as="geometry" />
        </mxCell>
        <mxCell id="QW86rbhPurHiQnkh5BR2-26" value="" style="endArrow=classic;html=1;rounded=0;entryX=0.982;entryY=0.177;entryDx=0;entryDy=0;entryPerimeter=0;strokeColor=#333333;" parent="1" edge="1">
          <mxGeometry width="50" height="50" relative="1" as="geometry">
            <mxPoint x="527.09" y="122.84" as="sourcePoint" />
            <mxPoint x="507.09" y="122.84" as="targetPoint" />
          </mxGeometry>
        </mxCell>
        <mxCell id="QW86rbhPurHiQnkh5BR2-27" value="" style="endArrow=classic;html=1;rounded=0;entryX=0.982;entryY=0.177;entryDx=0;entryDy=0;entryPerimeter=0;strokeColor=#333333;" parent="1" edge="1">
          <mxGeometry width="50" height="50" relative="1" as="geometry">
            <mxPoint x="627.09" y="122.84" as="sourcePoint" />
            <mxPoint x="607.09" y="122.84" as="targetPoint" />
          </mxGeometry>
        </mxCell>
        <mxCell id="QW86rbhPurHiQnkh5BR2-28" style="edgeStyle=orthogonalEdgeStyle;rounded=0;orthogonalLoop=1;jettySize=auto;html=1;exitX=1;exitY=0.5;exitDx=0;exitDy=0;dashed=1;dashPattern=1 4;" parent="1" edge="1">
          <mxGeometry relative="1" as="geometry">
            <mxPoint x="607.09" y="137.57999999999998" as="sourcePoint" />
            <mxPoint x="647.09" y="137.57999999999998" as="targetPoint" />
          </mxGeometry>
        </mxCell>
        <mxCell id="QW86rbhPurHiQnkh5BR2-30" value="start" style="rounded=0;whiteSpace=wrap;html=1;" parent="1" vertex="1">
          <mxGeometry x="647.09" y="122.84" width="30" height="30" as="geometry" />
        </mxCell>
        <mxCell id="QW86rbhPurHiQnkh5BR2-31" value="" style="endArrow=classic;html=1;rounded=0;entryX=0.982;entryY=0.177;entryDx=0;entryDy=0;entryPerimeter=0;strokeColor=#333333;" parent="1" edge="1">
          <mxGeometry width="50" height="50" relative="1" as="geometry">
            <mxPoint x="697.09" y="122.84" as="sourcePoint" />
            <mxPoint x="677.09" y="122.84" as="targetPoint" />
          </mxGeometry>
        </mxCell>
        <mxCell id="QW86rbhPurHiQnkh5BR2-32" style="edgeStyle=orthogonalEdgeStyle;rounded=0;orthogonalLoop=1;jettySize=auto;html=1;exitX=1;exitY=0.5;exitDx=0;exitDy=0;dashed=1;dashPattern=1 4;" parent="1" edge="1">
          <mxGeometry relative="1" as="geometry">
            <mxPoint x="677.09" y="137.57999999999998" as="sourcePoint" />
            <mxPoint x="707.09" y="137.84" as="targetPoint" />
          </mxGeometry>
        </mxCell>
        <mxCell id="QW86rbhPurHiQnkh5BR2-33" value="start" style="rounded=0;whiteSpace=wrap;html=1;" parent="1" vertex="1">
          <mxGeometry x="707.09" y="122.84" width="40" height="30" as="geometry" />
        </mxCell>
        <mxCell id="QW86rbhPurHiQnkh5BR2-34" value="" style="endArrow=classic;html=1;rounded=0;entryX=0.982;entryY=0.177;entryDx=0;entryDy=0;entryPerimeter=0;strokeColor=#333333;" parent="1" edge="1">
          <mxGeometry width="50" height="50" relative="1" as="geometry">
            <mxPoint x="757.09" y="122.84" as="sourcePoint" />
            <mxPoint x="747.09" y="122.84" as="targetPoint" />
          </mxGeometry>
        </mxCell>
        <mxCell id="QW86rbhPurHiQnkh5BR2-35" style="edgeStyle=orthogonalEdgeStyle;rounded=0;orthogonalLoop=1;jettySize=auto;html=1;exitX=1;exitY=0.5;exitDx=0;exitDy=0;dashed=1;dashPattern=1 4;" parent="1" edge="1">
          <mxGeometry relative="1" as="geometry">
            <mxPoint x="747.09" y="137.57999999999998" as="sourcePoint" />
            <mxPoint x="777.09" y="137.84" as="targetPoint" />
          </mxGeometry>
        </mxCell>
        <mxCell id="QW86rbhPurHiQnkh5BR2-36" value="start" style="rounded=0;whiteSpace=wrap;html=1;" parent="1" vertex="1">
          <mxGeometry x="777.09" y="122.84" width="30" height="30" as="geometry" />
        </mxCell>
        <mxCell id="QW86rbhPurHiQnkh5BR2-37" value="" style="endArrow=classic;html=1;rounded=0;entryX=0.982;entryY=0.177;entryDx=0;entryDy=0;entryPerimeter=0;strokeColor=#333333;" parent="1" edge="1">
          <mxGeometry width="50" height="50" relative="1" as="geometry">
            <mxPoint x="817.09" y="122.84" as="sourcePoint" />
            <mxPoint x="807.09" y="122.84" as="targetPoint" />
          </mxGeometry>
        </mxCell>
        <mxCell id="QW86rbhPurHiQnkh5BR2-38" style="edgeStyle=orthogonalEdgeStyle;rounded=0;orthogonalLoop=1;jettySize=auto;html=1;exitX=1;exitY=0.5;exitDx=0;exitDy=0;dashed=1;dashPattern=1 4;" parent="1" edge="1">
          <mxGeometry relative="1" as="geometry">
            <mxPoint x="807.09" y="137.57999999999998" as="sourcePoint" />
            <mxPoint x="827.09" y="137.84" as="targetPoint" />
          </mxGeometry>
        </mxCell>
        <mxCell id="QW86rbhPurHiQnkh5BR2-39" value="start" style="rounded=0;whiteSpace=wrap;html=1;" parent="1" vertex="1">
          <mxGeometry x="827.09" y="122.84" width="30" height="30" as="geometry" />
        </mxCell>
        <mxCell id="QW86rbhPurHiQnkh5BR2-40" value="" style="endArrow=classic;html=1;rounded=0;entryX=0.982;entryY=0.177;entryDx=0;entryDy=0;entryPerimeter=0;strokeColor=#333333;" parent="1" edge="1">
          <mxGeometry width="50" height="50" relative="1" as="geometry">
            <mxPoint x="867.09" y="122.84" as="sourcePoint" />
            <mxPoint x="857.09" y="122.84" as="targetPoint" />
          </mxGeometry>
        </mxCell>
        <mxCell id="QW86rbhPurHiQnkh5BR2-41" style="edgeStyle=orthogonalEdgeStyle;rounded=0;orthogonalLoop=1;jettySize=auto;html=1;exitX=1;exitY=0.5;exitDx=0;exitDy=0;dashed=1;dashPattern=1 4;" parent="1" edge="1">
          <mxGeometry relative="1" as="geometry">
            <mxPoint x="857.09" y="137.74" as="sourcePoint" />
            <mxPoint x="887.09" y="138" as="targetPoint" />
          </mxGeometry>
        </mxCell>
        <mxCell id="QW86rbhPurHiQnkh5BR2-44" value="start" style="rounded=0;whiteSpace=wrap;html=1;" parent="1" vertex="1">
          <mxGeometry x="887.09" y="122.84" width="30" height="30" as="geometry" />
        </mxCell>
        <mxCell id="QW86rbhPurHiQnkh5BR2-45" value="" style="endArrow=classic;html=1;rounded=0;entryX=0.982;entryY=0.177;entryDx=0;entryDy=0;entryPerimeter=0;strokeColor=#333333;" parent="1" edge="1">
          <mxGeometry width="50" height="50" relative="1" as="geometry">
            <mxPoint x="947.09" y="122.84" as="sourcePoint" />
            <mxPoint x="917.09" y="122.84" as="targetPoint" />
          </mxGeometry>
        </mxCell>
        <mxCell id="QW86rbhPurHiQnkh5BR2-46" style="edgeStyle=orthogonalEdgeStyle;rounded=0;orthogonalLoop=1;jettySize=auto;html=1;exitX=1;exitY=0.5;exitDx=0;exitDy=0;" parent="1" source="QW86rbhPurHiQnkh5BR2-52" edge="1">
          <mxGeometry relative="1" as="geometry">
            <mxPoint x="917.09" y="137.74" as="sourcePoint" />
            <mxPoint x="987.09" y="137.84" as="targetPoint" />
          </mxGeometry>
        </mxCell>
        <mxCell id="QW86rbhPurHiQnkh5BR2-47" value="data_in" style="rounded=0;whiteSpace=wrap;html=1;rotation=-90;" parent="1" vertex="1">
          <mxGeometry x="-37.05" y="139.05" width="120" height="27.93" as="geometry" />
        </mxCell>
        <mxCell id="QW86rbhPurHiQnkh5BR2-52" value="data_out" style="rounded=0;whiteSpace=wrap;html=1;rotation=-90;" parent="1" vertex="1">
          <mxGeometry x="917.09" y="152.84" width="120" height="25" as="geometry" />
        </mxCell>
        <mxCell id="QW86rbhPurHiQnkh5BR2-56" style="edgeStyle=orthogonalEdgeStyle;rounded=0;orthogonalLoop=1;jettySize=auto;html=1;exitX=1;exitY=0.5;exitDx=0;exitDy=0;entryX=0.731;entryY=-0.021;entryDx=0;entryDy=0;entryPerimeter=0;dashed=1;dashPattern=1 4;" parent="1" source="QW86rbhPurHiQnkh5BR2-44" target="QW86rbhPurHiQnkh5BR2-52" edge="1">
          <mxGeometry relative="1" as="geometry" />
        </mxCell>
        <mxCell id="QW86rbhPurHiQnkh5BR2-64" value="" style="endArrow=none;html=1;rounded=0;strokeColor=#4A4A4A;" parent="1" edge="1">
          <mxGeometry width="50" height="50" relative="1" as="geometry">
            <mxPoint x="427.09" y="487.84000000000003" as="sourcePoint" />
            <mxPoint x="430" y="73.33333333333333" as="targetPoint" />
          </mxGeometry>
        </mxCell>
      </root>
    </mxGraphModel>
  </diagram>
</mxfile>
